<svg width="126" height="26" viewBox="0 0 126 26" fill="none" xmlns="http://www.w3.org/2000/svg">
<g filter="url(#filter0_d_1_4099)">
<path d="M4.33594 1.71875C5.09635 1.65104 5.83333 1.60417 6.54688 1.57812C7.26042 1.54688 7.96615 1.53125 8.66406 1.53125C9.36198 1.53125 10.1198 1.54948 10.9375 1.58594C11.7552 1.61719 12.6484 1.66667 13.6172 1.73438L13.7109 1.89844L12.9766 3.79688L12.7188 3.71875C12.7552 3.53646 12.7812 3.36719 12.7969 3.21094C12.8177 3.04948 12.8281 2.89844 12.8281 2.75781C12.8281 2.5651 12.8125 2.39062 12.7812 2.23438C12.1198 2.19271 11.5234 2.16146 10.9922 2.14062C10.4661 2.11979 9.9974 2.10677 9.58594 2.10156V11.5938C9.58594 11.8073 9.60417 11.9896 9.64062 12.1406C9.68229 12.2917 9.75 12.4193 9.84375 12.5234C9.9375 12.6276 10.0625 12.7135 10.2188 12.7812C10.375 12.8438 10.5729 12.8958 10.8125 12.9375L10.75 13.125C10.4375 13.0833 10.1667 13.0521 9.9375 13.0312C9.70833 13.0104 9.51562 13 9.35938 13C9.21354 13 9.04948 13.0104 8.86719 13.0312C8.6901 13.0521 8.49219 13.0833 8.27344 13.125L8.22656 13.0469C8.33073 12.8958 8.38281 12.6198 8.38281 12.2188V2.10156C7.98698 2.10677 7.52344 2.11979 6.99219 2.14062C6.46094 2.16146 5.85417 2.19271 5.17188 2.23438C5.14062 2.40625 5.125 2.58854 5.125 2.78125C5.125 3.05729 5.16146 3.36979 5.23438 3.71875L4.97656 3.79688L4.24219 1.89844L4.33594 1.71875ZM21.3125 7.54688C21.3125 7.10938 21.2708 6.7526 21.1875 6.47656C21.1042 6.19531 20.9896 5.97656 20.8438 5.82031C20.7031 5.65885 20.5365 5.54688 20.3438 5.48438C20.1562 5.42188 19.9557 5.39062 19.7422 5.39062C19.4818 5.39062 19.237 5.41406 19.0078 5.46094C18.7839 5.50781 18.5573 5.58073 18.3281 5.67969C18.1042 5.77344 17.875 5.89323 17.6406 6.03906C17.4062 6.17969 17.1536 6.34635 16.8828 6.53906V11.9297C16.8828 12.0964 16.8958 12.2318 16.9219 12.3359C16.9479 12.4349 17.0026 12.5182 17.0859 12.5859C17.1693 12.6536 17.2865 12.7135 17.4375 12.7656C17.5885 12.8177 17.7865 12.875 18.0312 12.9375L17.9688 13.125C17.6667 13.0833 17.4089 13.0521 17.1953 13.0312C16.987 13.0104 16.776 13 16.5625 13C16.349 13 16.0443 13.0417 15.6484 13.125L15.6016 13.0469C15.7057 12.8958 15.7578 12.6198 15.7578 12.2188V2.85938C15.7578 2.51042 15.7396 2.21875 15.7031 1.98438C15.6719 1.75 15.612 1.5625 15.5234 1.42188C15.4401 1.28125 15.3229 1.18229 15.1719 1.125C15.0208 1.06771 14.8594 1.03906 14.6875 1.03906C14.5208 1.03906 14.4193 1.04167 14.3828 1.04688L14.3516 0.90625C15.2005 0.651042 15.9896 0.523438 16.7188 0.523438C16.8281 0.799479 16.8828 1.09635 16.8828 1.41406V5.99219C17.2422 5.7474 17.5677 5.54688 17.8594 5.39062C18.1562 5.22917 18.4323 5.10156 18.6875 5.00781C18.9479 4.91406 19.1927 4.84896 19.4219 4.8125C19.6562 4.77604 19.8932 4.75781 20.1328 4.75781C20.4609 4.75781 20.7604 4.80208 21.0312 4.89062C21.3073 4.97396 21.5443 5.11458 21.7422 5.3125C21.9401 5.50521 22.099 5.76042 22.2188 6.07812C22.3385 6.39583 22.4089 6.78906 22.4297 7.25781V12.1172C22.4297 12.2422 22.4583 12.3464 22.5156 12.4297C22.5781 12.513 22.6562 12.5833 22.75 12.6406C22.849 12.6979 22.9609 12.7474 23.0859 12.7891C23.2109 12.8255 23.3411 12.8646 23.4766 12.9062L23.4062 13.0938C23.1146 13.0312 22.7734 13 22.3828 13C21.9922 13 21.599 13.0417 21.2031 13.125L21.1562 13.0469C21.2604 12.8958 21.3125 12.6198 21.3125 12.2188V7.54688ZM25 9.19531C25 8.64323 25.0911 8.10938 25.2734 7.59375C25.4557 7.07292 25.7161 6.61198 26.0547 6.21094C26.3932 5.80469 26.8021 5.48177 27.2812 5.24219C27.7656 4.9974 28.3073 4.875 28.9062 4.875C29.2812 4.875 29.6354 4.9401 29.9688 5.07031C30.3021 5.19531 30.5911 5.39323 30.8359 5.66406C31.0859 5.92969 31.2812 6.27344 31.4219 6.69531C31.5677 7.11198 31.6406 7.60938 31.6406 8.1875L31.3359 8.46875H26.2344C26.224 8.55729 26.2188 8.64323 26.2188 8.72656C26.2188 8.8099 26.2188 8.89323 26.2188 8.97656C26.2188 9.54427 26.2839 10.0599 26.4141 10.5234C26.5495 10.987 26.7292 11.3854 26.9531 11.7188C27.1823 12.0469 27.4505 12.3021 27.7578 12.4844C28.0651 12.6667 28.3906 12.7578 28.7344 12.7578C28.9531 12.7578 29.1745 12.7422 29.3984 12.7109C29.6276 12.6745 29.849 12.6198 30.0625 12.5469C30.2812 12.474 30.4922 12.3802 30.6953 12.2656C30.8984 12.151 31.0859 12.013 31.2578 11.8516L31.5781 12.1875C31.1667 12.5938 30.7188 12.8828 30.2344 13.0547C29.75 13.2318 29.1901 13.3203 28.5547 13.3203C28.0547 13.3203 27.5859 13.224 27.1484 13.0312C26.7161 12.8385 26.3411 12.5625 26.0234 12.2031C25.7057 11.8438 25.4557 11.4115 25.2734 10.9062C25.0911 10.3958 25 9.82552 25 9.19531ZM28.7344 5.41406C27.9271 5.41406 27.3359 5.625 26.9609 6.04688C26.5859 6.46354 26.3594 7.0651 26.2812 7.85156H30.6328C30.5911 6.9974 30.3984 6.3776 30.0547 5.99219C29.7161 5.60677 29.276 5.41406 28.7344 5.41406ZM44.6875 1.71875C44.9792 1.73958 45.1771 1.79948 45.2812 1.89844L47.8594 10.0547C48.0208 10.5807 48.112 11.0078 48.1328 11.3359H48.2266L50.8203 2.57031C50.8516 2.3724 50.763 2.23438 50.5547 2.15625C50.3516 2.07812 50.0234 2.0599 49.5703 2.10156L49.5234 1.96094C50.1953 1.76823 50.888 1.67188 51.6016 1.67188C51.638 1.67188 51.6641 1.6901 51.6797 1.72656C51.7005 1.75781 51.7057 1.79167 51.6953 1.82812C51.2786 3.30208 50.0964 7.07812 48.1484 13.1562L47.6016 13L44.7344 3.89844V3.92969H44.6406L41.7109 13.1562L41.1719 13L38.2266 3.46094C38.1172 3.10677 37.9792 2.84896 37.8125 2.6875C37.651 2.52604 37.474 2.44531 37.2812 2.44531C37.0938 2.44531 36.9271 2.45312 36.7812 2.46875C36.6406 2.47917 36.5573 2.48438 36.5312 2.48438L36.4531 2.32812C37.3281 1.89062 38.112 1.67188 38.8047 1.67188L41.2031 9.47656C41.3906 10.112 41.4922 10.6849 41.5078 11.1953H41.6016L44.6875 1.71875ZM52.4062 9.19531C52.4062 8.64323 52.4974 8.10938 52.6797 7.59375C52.862 7.07292 53.1224 6.61198 53.4609 6.21094C53.7995 5.80469 54.2083 5.48177 54.6875 5.24219C55.1719 4.9974 55.7135 4.875 56.3125 4.875C56.6875 4.875 57.0417 4.9401 57.375 5.07031C57.7083 5.19531 57.9974 5.39323 58.2422 5.66406C58.4922 5.92969 58.6875 6.27344 58.8281 6.69531C58.974 7.11198 59.0469 7.60938 59.0469 8.1875L58.7422 8.46875H53.6406C53.6302 8.55729 53.625 8.64323 53.625 8.72656C53.625 8.8099 53.625 8.89323 53.625 8.97656C53.625 9.54427 53.6901 10.0599 53.8203 10.5234C53.9557 10.987 54.1354 11.3854 54.3594 11.7188C54.5885 12.0469 54.8568 12.3021 55.1641 12.4844C55.4714 12.6667 55.7969 12.7578 56.1406 12.7578C56.3594 12.7578 56.5807 12.7422 56.8047 12.7109C57.0339 12.6745 57.2552 12.6198 57.4688 12.5469C57.6875 12.474 57.8984 12.3802 58.1016 12.2656C58.3047 12.151 58.4922 12.013 58.6641 11.8516L58.9844 12.1875C58.5729 12.5938 58.125 12.8828 57.6406 13.0547C57.1562 13.2318 56.5964 13.3203 55.9609 13.3203C55.4609 13.3203 54.9922 13.224 54.5547 13.0312C54.1224 12.8385 53.7474 12.5625 53.4297 12.2031C53.112 11.8438 52.862 11.4115 52.6797 10.9062C52.4974 10.3958 52.4062 9.82552 52.4062 9.19531ZM56.1406 5.41406C55.3333 5.41406 54.7422 5.625 54.3672 6.04688C53.9922 6.46354 53.7656 7.0651 53.6875 7.85156H58.0391C57.9974 6.9974 57.8047 6.3776 57.4609 5.99219C57.1224 5.60677 56.6823 5.41406 56.1406 5.41406ZM66.4688 2.85938C66.4688 2.50521 66.4531 2.22396 66.4219 2.01562C66.3906 1.80729 66.3255 1.625 66.2266 1.46875C66.1328 1.3125 65.9948 1.20312 65.8125 1.14062C65.6302 1.07812 65.3906 1.04688 65.0938 1.04688L65.0625 0.90625C65.9219 0.651042 66.7109 0.523438 67.4297 0.523438C67.5339 0.799479 67.5859 1.09635 67.5859 1.41406V11.5938C67.5859 12.0052 67.6823 12.3099 67.875 12.5078C68.0677 12.7057 68.4089 12.849 68.8984 12.9375L68.8359 13.125C68.237 13.0417 67.7578 13 67.3984 13C67.1172 13 66.7682 13.0417 66.3516 13.125L66.3047 13.0469C66.4141 12.8958 66.4688 12.6198 66.4688 12.2188V12.1484C65.7031 12.9297 64.9036 13.3203 64.0703 13.3203C63.6276 13.3203 63.2005 13.2266 62.7891 13.0391C62.3828 12.8516 62.0208 12.5938 61.7031 12.2656C61.3854 11.9323 61.1302 11.5182 60.9375 11.0234C60.75 10.5234 60.6562 9.98177 60.6562 9.39844C60.6562 8.0026 61.0234 6.90104 61.7578 6.09375C62.4974 5.28125 63.5651 4.875 64.9609 4.875C65.3984 4.875 65.901 4.91667 66.4688 5V2.85938ZM66.4688 5.86719C65.875 5.59635 65.1823 5.46094 64.3906 5.46094C63.9844 5.46094 63.6328 5.51823 63.3359 5.63281C63.0391 5.74219 62.7969 5.89323 62.6094 6.08594C62.4271 6.27865 62.2812 6.52865 62.1719 6.83594C62.0625 7.13802 61.987 7.45833 61.9453 7.79688C61.9089 8.13542 61.8906 8.53125 61.8906 8.98438C61.8906 10.1771 62.112 11.0859 62.5547 11.7109C62.9974 12.3359 63.5703 12.6484 64.2734 12.6484C65.0391 12.6484 65.7708 12.2917 66.4688 11.5781V5.86719ZM75.9062 2.85938C75.9062 2.50521 75.8906 2.22396 75.8594 2.01562C75.8281 1.80729 75.763 1.625 75.6641 1.46875C75.5703 1.3125 75.4323 1.20312 75.25 1.14062C75.0677 1.07812 74.8281 1.04688 74.5312 1.04688L74.5 0.90625C75.3594 0.651042 76.1484 0.523438 76.8672 0.523438C76.9714 0.799479 77.0234 1.09635 77.0234 1.41406V11.5938C77.0234 12.0052 77.1198 12.3099 77.3125 12.5078C77.5052 12.7057 77.8464 12.849 78.3359 12.9375L78.2734 13.125C77.6745 13.0417 77.1953 13 76.8359 13C76.5547 13 76.2057 13.0417 75.7891 13.125L75.7422 13.0469C75.8516 12.8958 75.9062 12.6198 75.9062 12.2188V12.1484C75.1406 12.9297 74.3411 13.3203 73.5078 13.3203C73.0651 13.3203 72.638 13.2266 72.2266 13.0391C71.8203 12.8516 71.4583 12.5938 71.1406 12.2656C70.8229 11.9323 70.5677 11.5182 70.375 11.0234C70.1875 10.5234 70.0938 9.98177 70.0938 9.39844C70.0938 8.0026 70.4609 6.90104 71.1953 6.09375C71.9349 5.28125 73.0026 4.875 74.3984 4.875C74.8359 4.875 75.3385 4.91667 75.9062 5V2.85938ZM75.9062 5.86719C75.3125 5.59635 74.6198 5.46094 73.8281 5.46094C73.4219 5.46094 73.0703 5.51823 72.7734 5.63281C72.4766 5.74219 72.2344 5.89323 72.0469 6.08594C71.8646 6.27865 71.7188 6.52865 71.6094 6.83594C71.5 7.13802 71.4245 7.45833 71.3828 7.79688C71.3464 8.13542 71.3281 8.53125 71.3281 8.98438C71.3281 10.1771 71.5495 11.0859 71.9922 11.7109C72.4349 12.3359 73.0078 12.6484 73.7109 12.6484C74.4766 12.6484 75.2083 12.2917 75.9062 11.5781V5.86719ZM80.5391 7.21094C80.5391 6.47135 80.4505 5.97656 80.2734 5.72656C80.1016 5.47135 79.7318 5.36198 79.1641 5.39844L79.1328 5.25781C79.9922 5.0026 80.7812 4.875 81.5 4.875C81.6094 5.14583 81.6641 5.44271 81.6641 5.76562V11.5938C81.6641 12.0052 81.7604 12.3099 81.9531 12.5078C82.1458 12.7057 82.487 12.849 82.9766 12.9375L82.9141 13.125C82.3151 13.0417 81.8516 13 81.5234 13C81.2005 13 80.8359 13.0417 80.4297 13.125L80.3828 13.0469C80.487 12.8958 80.5391 12.6198 80.5391 12.2188V7.21094ZM79.7422 1.97656C80.237 1.6901 80.7969 1.45052 81.4219 1.25781C81.4219 1.6901 81.4922 2.11719 81.6328 2.53906L81.5312 2.67969C81.0365 2.71094 80.5208 2.84896 79.9844 3.09375C79.8542 2.73438 79.7734 2.36198 79.7422 1.97656ZM85.1797 7.21094C85.1797 6.86198 85.1615 6.57031 85.125 6.33594C85.0938 6.10156 85.0339 5.91406 84.9453 5.77344C84.862 5.63281 84.7448 5.53385 84.5938 5.47656C84.4427 5.41927 84.2812 5.39062 84.1094 5.39062C83.9427 5.39062 83.8411 5.39323 83.8047 5.39844L83.7734 5.25781C84.6224 5.0026 85.4115 4.875 86.1406 4.875C86.25 5.15104 86.3047 5.44792 86.3047 5.76562V5.99219C86.6068 5.78906 86.8854 5.61198 87.1406 5.46094C87.3958 5.3099 87.6458 5.18229 87.8906 5.07812C88.1406 4.97396 88.3958 4.89583 88.6562 4.84375C88.9167 4.79167 89.2031 4.76562 89.5156 4.76562C89.7969 4.76562 90.0755 4.80208 90.3516 4.875C90.6328 4.94792 90.8828 5.07812 91.1016 5.26562C91.3255 5.45312 91.5052 5.70833 91.6406 6.03125C91.7812 6.35417 91.8516 6.76302 91.8516 7.25781V12.1172C91.8516 12.2422 91.8802 12.3464 91.9375 12.4297C92 12.513 92.0781 12.5833 92.1719 12.6406C92.2708 12.6979 92.3828 12.7474 92.5078 12.7891C92.6328 12.8255 92.763 12.8646 92.8984 12.9062L92.8281 13.0938C92.5365 13.0312 92.1484 13 91.6641 13C91.3672 13 91.0208 13.0417 90.625 13.125L90.5781 13.0469C90.6823 12.8958 90.7344 12.6198 90.7344 12.2188V7.54688C90.7344 7.10938 90.6927 6.7526 90.6094 6.47656C90.526 6.19531 90.4115 5.97656 90.2656 5.82031C90.125 5.65885 89.9583 5.54688 89.7656 5.48438C89.5781 5.42188 89.3776 5.39062 89.1641 5.39062C88.9036 5.39062 88.6589 5.41406 88.4297 5.46094C88.2057 5.50781 87.9792 5.58073 87.75 5.67969C87.526 5.77344 87.2969 5.89323 87.0625 6.03906C86.8281 6.17969 86.5755 6.34635 86.3047 6.53906V11.9297C86.3047 12.0964 86.3177 12.2318 86.3438 12.3359C86.3698 12.4349 86.4245 12.5182 86.5078 12.5859C86.5911 12.6536 86.7083 12.7135 86.8594 12.7656C87.0104 12.8177 87.2083 12.875 87.4531 12.9375L87.3906 13.125C87.0885 13.0833 86.8307 13.0521 86.6172 13.0312C86.4089 13.0104 86.2396 13 86.1094 13C85.8125 13 85.4661 13.0417 85.0703 13.125L85.0234 13.0469C85.1276 12.8958 85.1797 12.6198 85.1797 12.2188V7.21094ZM101.578 14.9844C101.578 15.5052 101.383 15.9661 100.992 16.3672C100.607 16.7734 100.107 17.0781 99.4922 17.2812C98.8776 17.4896 98.2135 17.5938 97.5 17.5938C96.9531 17.5938 96.4609 17.5208 96.0234 17.375C95.5859 17.2292 95.224 16.987 94.9375 16.6484C94.651 16.3099 94.5078 15.8984 94.5078 15.4141C94.5078 14.9089 94.7292 14.4401 95.1719 14.0078C95.6146 13.5755 96.1979 13.2083 96.9219 12.9062C96.2656 12.7604 95.7943 12.6016 95.5078 12.4297C95.2214 12.2526 95.0781 11.9792 95.0781 11.6094C95.0781 11.2812 95.1797 11.0182 95.3828 10.8203C95.5859 10.6172 95.9323 10.4531 96.4219 10.3281C95.849 10.151 95.401 9.84635 95.0781 9.41406C94.7604 8.98177 94.6016 8.42188 94.6016 7.73438C94.6016 7.23438 94.7474 6.76302 95.0391 6.32031C95.3359 5.8776 95.724 5.52604 96.2031 5.26562C96.6875 5.00521 97.1927 4.875 97.7188 4.875C98.3229 4.875 98.8568 4.96875 99.3203 5.15625L101.883 4.875L101.945 5.14062L101.383 5.71875L99.9922 5.59375C100.529 6.07292 100.797 6.76562 100.797 7.67188C100.797 8.13021 100.659 8.57552 100.383 9.00781C100.107 9.4401 99.7266 9.79427 99.2422 10.0703C98.7578 10.3464 98.2396 10.4844 97.6875 10.4844C96.9375 10.6146 96.4557 10.7292 96.2422 10.8281C96.0339 10.9271 95.9297 11.0859 95.9297 11.3047C95.9297 11.4349 96.0729 11.5625 96.3594 11.6875C96.6458 11.8073 97.2109 11.974 98.0547 12.1875C98.4401 12.2812 98.7656 12.3672 99.0312 12.4453C99.2969 12.5182 99.5625 12.6042 99.8281 12.7031C100.094 12.7969 100.31 12.8932 100.477 12.9922C100.648 13.0911 100.81 13.2057 100.961 13.3359C101.117 13.4714 101.234 13.6172 101.312 13.7734C101.396 13.9349 101.461 14.1146 101.508 14.3125C101.555 14.5104 101.578 14.7344 101.578 14.9844ZM97.9766 13.1094L97.6562 13.0312C97 13.276 96.4818 13.6068 96.1016 14.0234C95.7214 14.4401 95.5312 14.862 95.5312 15.2891C95.5312 15.5911 95.612 15.8568 95.7734 16.0859C95.9401 16.3203 96.1615 16.5026 96.4375 16.6328C96.7135 16.763 97.0078 16.8594 97.3203 16.9219C97.6328 16.9844 97.9583 17.0156 98.2969 17.0156C99.8229 17.0156 100.586 16.4193 100.586 15.2266C100.586 14.6484 100.367 14.1979 99.9297 13.875C99.4974 13.5521 98.8464 13.2969 97.9766 13.1094ZM97.3984 5.42969C96.7422 5.42969 96.2865 5.59896 96.0312 5.9375C95.7812 6.27083 95.6562 6.82812 95.6562 7.60938C95.6562 7.97396 95.7135 8.29948 95.8281 8.58594C95.9479 8.86719 96.0964 9.09115 96.2734 9.25781C96.4505 9.41927 96.6562 9.55469 96.8906 9.66406C97.1302 9.76823 97.3516 9.83854 97.5547 9.875C97.763 9.91146 97.9688 9.92969 98.1719 9.92969C98.7031 9.92969 99.0964 9.73958 99.3516 9.35938C99.6068 8.97917 99.7344 8.45833 99.7344 7.79688C99.7344 7.41667 99.6745 7.08073 99.5547 6.78906C99.4401 6.49219 99.2969 6.26302 99.125 6.10156C98.9583 5.9349 98.763 5.79948 98.5391 5.69531C98.3151 5.58594 98.112 5.51562 97.9297 5.48438C97.7474 5.44792 97.5703 5.42969 97.3984 5.42969ZM111.188 4.875C112.385 4.875 113.326 5.24219 114.008 5.97656C114.69 6.71094 115.031 7.73438 115.031 9.04688C115.031 9.80729 114.857 10.5156 114.508 11.1719C114.159 11.8281 113.685 12.3516 113.086 12.7422C112.487 13.1276 111.839 13.3203 111.141 13.3203C109.938 13.3203 108.995 12.9583 108.312 12.2344C107.635 11.5052 107.297 10.474 107.297 9.14062C107.297 8.34896 107.471 7.6276 107.82 6.97656C108.169 6.32031 108.641 5.80729 109.234 5.4375C109.833 5.0625 110.484 4.875 111.188 4.875ZM111.031 5.41406C110.62 5.41406 110.263 5.47396 109.961 5.59375C109.659 5.71354 109.417 5.875 109.234 6.07812C109.052 6.28125 108.906 6.53906 108.797 6.85156C108.688 7.16406 108.612 7.48438 108.57 7.8125C108.534 8.14062 108.516 8.52083 108.516 8.95312C108.516 9.64062 108.596 10.2422 108.758 10.7578C108.924 11.2682 109.146 11.6667 109.422 11.9531C109.698 12.2344 109.992 12.4427 110.305 12.5781C110.617 12.7083 110.948 12.7734 111.297 12.7734C111.703 12.7734 112.057 12.7109 112.359 12.5859C112.667 12.4557 112.911 12.2891 113.094 12.0859C113.276 11.8776 113.422 11.6172 113.531 11.3047C113.641 10.987 113.714 10.6667 113.75 10.3438C113.792 10.0208 113.812 9.65365 113.812 9.24219C113.812 8.66406 113.758 8.14844 113.648 7.69531C113.539 7.24219 113.393 6.875 113.211 6.59375C113.034 6.3125 112.82 6.08073 112.57 5.89844C112.326 5.71615 112.078 5.59115 111.828 5.52344C111.578 5.45052 111.312 5.41406 111.031 5.41406ZM119.555 1.625C119.279 1.80729 119.081 2.19271 118.961 2.78125C118.841 3.36979 118.768 4.16927 118.742 5.17969H121.336V5.44531C121.242 5.48698 121.13 5.52865 121 5.57031C120.87 5.60677 120.732 5.64062 120.586 5.67188C120.44 5.69792 120.292 5.72135 120.141 5.74219C119.995 5.75781 119.859 5.76562 119.734 5.76562H118.742V11.5938C118.742 11.8021 118.763 11.9818 118.805 12.1328C118.852 12.2839 118.927 12.4115 119.031 12.5156C119.135 12.6198 119.271 12.7057 119.438 12.7734C119.604 12.8411 119.81 12.8958 120.055 12.9375L119.984 13.125C119.688 13.0833 119.419 13.0521 119.18 13.0312C118.94 13.0104 118.729 13 118.547 13C118.25 13 117.904 13.0417 117.508 13.125L117.461 13.0469C117.565 12.8958 117.617 12.6198 117.617 12.2188V5.8125L116.289 5.89844V5.46094C116.82 5.29427 117.263 5.21094 117.617 5.21094V4.95312C117.617 4.5 117.638 4.08333 117.68 3.70312C117.721 3.31771 117.802 2.96875 117.922 2.65625C118.042 2.33854 118.206 2.0599 118.414 1.82031C118.628 1.57552 118.906 1.36719 119.25 1.19531C119.521 1.0599 119.799 0.963542 120.086 0.90625C120.378 0.848958 120.698 0.820312 121.047 0.820312C121.182 0.820312 121.32 0.825521 121.461 0.835938C121.607 0.841146 121.76 0.848958 121.922 0.859375C121.927 0.916667 121.93 0.973958 121.93 1.03125C121.93 1.08333 121.93 1.16406 121.93 1.27344C121.93 1.3776 121.922 1.51042 121.906 1.67188C121.896 1.83333 121.88 1.98958 121.859 2.14062C121.839 2.29167 121.812 2.4349 121.781 2.57031C121.755 2.70573 121.724 2.82292 121.688 2.92188L121.43 2.875C121.43 2.77604 121.419 2.65365 121.398 2.50781C121.383 2.35677 121.362 2.20833 121.336 2.0625C121.31 1.91667 121.281 1.78646 121.25 1.67188C121.219 1.55208 121.188 1.47135 121.156 1.42969C120.927 1.3724 120.719 1.34375 120.531 1.34375C120.167 1.34375 119.841 1.4375 119.555 1.625Z" fill="black"/>
</g>
<defs>
<filter id="filter0_d_1_4099" x="0.242188" y="0.523438" width="125.688" height="25.0703" filterUnits="userSpaceOnUse" color-interpolation-filters="sRGB">
<feFlood flood-opacity="0" result="BackgroundImageFix"/>
<feColorMatrix in="SourceAlpha" type="matrix" values="0 0 0 0 0 0 0 0 0 0 0 0 0 0 0 0 0 0 127 0" result="hardAlpha"/>
<feOffset dy="4"/>
<feGaussianBlur stdDeviation="2"/>
<feComposite in2="hardAlpha" operator="out"/>
<feColorMatrix type="matrix" values="0 0 0 0 0 0 0 0 0 0 0 0 0 0 0 0 0 0 0.25 0"/>
<feBlend mode="normal" in2="BackgroundImageFix" result="effect1_dropShadow_1_4099"/>
<feBlend mode="normal" in="SourceGraphic" in2="effect1_dropShadow_1_4099" result="shape"/>
</filter>
</defs>
</svg>
