<svg width="125" height="20" viewBox="0 0 125 20" fill="none" xmlns="http://www.w3.org/2000/svg">
<path d="M6.94 0.719999C6.82 1.22667 6.69333 1.77333 6.56 2.36C6.42667 2.94667 6.30667 3.52 6.2 4.08C6.09333 4.64 6.00667 5.15333 5.94 5.62H4.04L3.9 5.4C4.02 4.93333 4.17333 4.43333 4.36 3.9C4.54667 3.35333 4.75333 2.80667 4.98 2.26C5.20667 1.71333 5.42667 1.2 5.64 0.719999H6.94ZM3.24 0.719999C3.12 1.22667 2.99333 1.77333 2.86 2.36C2.72667 2.94667 2.60667 3.52 2.5 4.08C2.39333 4.64 2.30667 5.15333 2.24 5.62H0.36L0.24 5.4C0.36 4.93333 0.513333 4.43333 0.7 3.9C0.886667 3.35333 1.08667 2.80667 1.3 2.26C1.52667 1.71333 1.74667 1.2 1.96 0.719999H3.24ZM14.9023 6.50391C15.2539 6.50391 15.5241 6.60807 15.7129 6.81641C15.9017 7.02474 16.0156 7.24284 16.0547 7.4707C16.0938 7.69857 16.1133 7.99479 16.1133 8.35938C16.1133 8.60026 16.0221 9.17969 15.8398 10.0977C16.0547 9.72656 16.3216 9.33268 16.6406 8.91602C16.9596 8.49935 17.2949 8.10872 17.6465 7.74414C17.998 7.37956 18.3366 7.08333 18.6621 6.85547C18.9876 6.62109 19.2643 6.50391 19.4922 6.50391C19.9219 6.50391 20.2148 6.61133 20.3711 6.82617C20.5273 7.04102 20.6055 7.36328 20.6055 7.79297C20.6055 8.39844 20.5143 9.10807 20.332 9.92188L19.6875 12.9297C19.6484 13.0859 19.6289 13.2487 19.6289 13.418C19.6289 13.7435 19.694 13.9062 19.8242 13.9062C19.987 13.9062 20.1823 13.7923 20.4102 13.5645C20.638 13.3301 20.8333 13.1315 20.9961 12.9688L21.1133 12.832C21.1393 12.832 21.1882 12.8939 21.2598 13.0176C21.3314 13.1413 21.3672 13.2292 21.3672 13.2812C21.2565 13.4701 21.0547 13.7109 20.7617 14.0039C20.4753 14.2969 20.1628 14.5573 19.8242 14.7852C19.4857 15.0065 19.1797 15.1172 18.9062 15.1172C18.6979 15.1172 18.5352 15.0228 18.418 14.834C18.3008 14.6452 18.2422 14.401 18.2422 14.1016C18.2422 13.9062 18.2878 13.5612 18.3789 13.0664L19.0625 9.84375C19.1536 9.40104 19.1992 9.04948 19.1992 8.78906C19.1992 8.5612 19.1797 8.36589 19.1406 8.20312C19.1081 8.03385 19.0039 7.94922 18.8281 7.94922C18.6068 7.94922 18.3171 8.10547 17.959 8.41797C17.6074 8.73047 17.2428 9.14388 16.8652 9.6582C16.4876 10.166 16.1491 10.7259 15.8496 11.3379C15.5501 11.9434 15.3451 12.5456 15.2344 13.1445L14.8828 15H13.5742L14.668 9.45312C14.7201 9.16016 14.7461 8.91276 14.7461 8.71094C14.7461 8.20312 14.6159 7.94922 14.3555 7.94922C14.1276 7.94922 13.8379 8.12174 13.4863 8.4668C13.1348 8.81185 12.7734 9.25781 12.4023 9.80469C12.0312 10.3516 11.6992 10.9342 11.4062 11.5527C11.1133 12.1647 10.9115 12.7409 10.8008 13.2812L10.4492 15C10.0846 15.0521 9.86328 15.0781 9.78516 15.0781C9.72005 15.0781 9.50521 15.0521 9.14062 15L10.3125 8.98438C10.3776 8.53516 10.4102 8.27474 10.4102 8.20312C10.4102 7.8776 10.3451 7.71484 10.2148 7.71484C10.1042 7.71484 9.93815 7.81901 9.7168 8.02734C9.61263 8.13151 9.4987 8.24544 9.375 8.36914C9.25781 8.49284 9.17969 8.58073 9.14062 8.63281C9.11458 8.63281 9.06576 8.57096 8.99414 8.44727C8.92253 8.32357 8.88672 8.23568 8.88672 8.18359C8.99089 8.00781 9.17969 7.78971 9.45312 7.5293C9.72656 7.26237 10.0195 7.02474 10.332 6.81641C10.6445 6.60807 10.9115 6.50391 11.1328 6.50391C11.3411 6.50391 11.5039 6.59831 11.6211 6.78711C11.7383 6.97591 11.7969 7.22005 11.7969 7.51953C11.7969 7.80599 11.7578 8.15104 11.6797 8.55469L11.3281 10.3711C11.569 9.95443 11.8457 9.52148 12.1582 9.07227C12.4772 8.62305 12.8027 8.20312 13.1348 7.8125C13.4733 7.42188 13.7956 7.10612 14.1016 6.86523C14.4076 6.62435 14.6745 6.50391 14.9023 6.50391ZM26.7969 6.50391C27.5651 6.50391 28.1608 6.77083 28.584 7.30469C29.0072 7.83854 29.2188 8.57422 29.2188 9.51172C29.2188 10.1823 29.0885 10.8496 28.8281 11.5137C28.5677 12.1712 28.2259 12.7702 27.8027 13.3105C27.3796 13.8509 26.9141 14.2839 26.4062 14.6094C25.8984 14.9349 25.3971 15.0977 24.9023 15.0977C24.1211 15.0977 23.5254 14.8438 23.1152 14.3359C22.7051 13.8281 22.5 13.1055 22.5 12.168C22.5 11.4909 22.627 10.8203 22.8809 10.1562C23.1413 9.48568 23.4831 8.87695 23.9062 8.33008C24.3294 7.77669 24.7917 7.33398 25.293 7.00195C25.8008 6.66992 26.3021 6.50391 26.7969 6.50391ZM26.5625 7.30469C26.237 7.30469 25.9212 7.44792 25.6152 7.73438C25.3092 8.01432 25.0326 8.38216 24.7852 8.83789C24.5378 9.29362 24.3424 9.79167 24.1992 10.332C24.056 10.8724 23.9844 11.3997 23.9844 11.9141C23.9844 12.6693 24.1048 13.2552 24.3457 13.6719C24.5866 14.0885 24.8893 14.2969 25.2539 14.2969C25.5794 14.2969 25.8887 14.1569 26.1816 13.877C26.4811 13.5905 26.748 13.2194 26.9824 12.7637C27.2168 12.3014 27.3991 11.8001 27.5293 11.2598C27.666 10.7194 27.7344 10.1888 27.7344 9.66797C27.7344 8.89974 27.6302 8.3138 27.4219 7.91016C27.2135 7.50651 26.9271 7.30469 26.5625 7.30469ZM36.9336 6.50391C37.2852 6.50391 37.5553 6.60807 37.7441 6.81641C37.9329 7.02474 38.0469 7.24284 38.0859 7.4707C38.125 7.69857 38.1445 7.99479 38.1445 8.35938C38.1445 8.60026 38.0534 9.17969 37.8711 10.0977C38.0859 9.72656 38.3529 9.33268 38.6719 8.91602C38.9909 8.49935 39.3262 8.10872 39.6777 7.74414C40.0293 7.37956 40.3678 7.08333 40.6934 6.85547C41.0189 6.62109 41.2956 6.50391 41.5234 6.50391C41.9531 6.50391 42.2461 6.61133 42.4023 6.82617C42.5586 7.04102 42.6367 7.36328 42.6367 7.79297C42.6367 8.39844 42.5456 9.10807 42.3633 9.92188L41.7188 12.9297C41.6797 13.0859 41.6602 13.2487 41.6602 13.418C41.6602 13.7435 41.7253 13.9062 41.8555 13.9062C42.0182 13.9062 42.2135 13.7923 42.4414 13.5645C42.6693 13.3301 42.8646 13.1315 43.0273 12.9688L43.1445 12.832C43.1706 12.832 43.2194 12.8939 43.291 13.0176C43.3626 13.1413 43.3984 13.2292 43.3984 13.2812C43.2878 13.4701 43.0859 13.7109 42.793 14.0039C42.5065 14.2969 42.194 14.5573 41.8555 14.7852C41.5169 15.0065 41.2109 15.1172 40.9375 15.1172C40.7292 15.1172 40.5664 15.0228 40.4492 14.834C40.332 14.6452 40.2734 14.401 40.2734 14.1016C40.2734 13.9062 40.319 13.5612 40.4102 13.0664L41.0938 9.84375C41.1849 9.40104 41.2305 9.04948 41.2305 8.78906C41.2305 8.5612 41.2109 8.36589 41.1719 8.20312C41.1393 8.03385 41.0352 7.94922 40.8594 7.94922C40.638 7.94922 40.3483 8.10547 39.9902 8.41797C39.6387 8.73047 39.2741 9.14388 38.8965 9.6582C38.5189 10.166 38.1803 10.7259 37.8809 11.3379C37.5814 11.9434 37.3763 12.5456 37.2656 13.1445L36.9141 15H35.6055L36.6992 9.45312C36.7513 9.16016 36.7773 8.91276 36.7773 8.71094C36.7773 8.20312 36.6471 7.94922 36.3867 7.94922C36.1589 7.94922 35.8691 8.12174 35.5176 8.4668C35.166 8.81185 34.8047 9.25781 34.4336 9.80469C34.0625 10.3516 33.7305 10.9342 33.4375 11.5527C33.1445 12.1647 32.9427 12.7409 32.832 13.2812L32.4805 15C32.1159 15.0521 31.8945 15.0781 31.8164 15.0781C31.7513 15.0781 31.5365 15.0521 31.1719 15L32.3438 8.98438C32.4089 8.53516 32.4414 8.27474 32.4414 8.20312C32.4414 7.8776 32.3763 7.71484 32.2461 7.71484C32.1354 7.71484 31.9694 7.81901 31.748 8.02734C31.6439 8.13151 31.5299 8.24544 31.4062 8.36914C31.2891 8.49284 31.2109 8.58073 31.1719 8.63281C31.1458 8.63281 31.097 8.57096 31.0254 8.44727C30.9538 8.32357 30.918 8.23568 30.918 8.18359C31.0221 8.00781 31.2109 7.78971 31.4844 7.5293C31.7578 7.26237 32.0508 7.02474 32.3633 6.81641C32.6758 6.60807 32.9427 6.50391 33.1641 6.50391C33.3724 6.50391 33.5352 6.59831 33.6523 6.78711C33.7695 6.97591 33.8281 7.22005 33.8281 7.51953C33.8281 7.80599 33.7891 8.15104 33.7109 8.55469L33.3594 10.3711C33.6003 9.95443 33.877 9.52148 34.1895 9.07227C34.5085 8.62305 34.834 8.20312 35.166 7.8125C35.5046 7.42188 35.8268 7.10612 36.1328 6.86523C36.4388 6.62435 36.7057 6.50391 36.9336 6.50391ZM48.9062 6.50391C49.5052 6.50391 49.9382 6.6569 50.2051 6.96289C50.472 7.26888 50.6055 7.60417 50.6055 7.96875C50.6055 8.54167 50.3125 9.10807 49.7266 9.66797C49.3359 10.0391 48.916 10.3581 48.4668 10.625C48.0176 10.8854 47.5846 11.084 47.168 11.2207C46.7513 11.3574 46.3997 11.4258 46.1133 11.4258C46.0612 11.4258 46.0352 11.6536 46.0352 12.1094C46.0352 12.6953 46.1491 13.1413 46.377 13.4473C46.6048 13.7533 46.9141 13.9062 47.3047 13.9062C47.4674 13.9062 47.6628 13.8607 47.8906 13.7695C48.1185 13.6784 48.2943 13.5807 48.418 13.4766C48.5482 13.3659 48.6198 13.3073 48.6328 13.3008C48.6458 13.2943 48.6719 13.2747 48.7109 13.2422C48.75 13.2031 48.8672 13.0859 49.0625 12.8906L49.1211 12.832C49.1471 12.832 49.196 12.8939 49.2676 13.0176C49.3392 13.1413 49.375 13.2292 49.375 13.2812C49.2578 13.4896 49.0495 13.7402 48.75 14.0332C48.457 14.3197 48.125 14.5736 47.7539 14.7949C47.3828 15.0098 47.0182 15.1172 46.6602 15.1172C45.9831 15.1172 45.4655 14.8535 45.1074 14.3262C44.7493 13.7988 44.5703 13.0729 44.5703 12.1484C44.5703 11.5234 44.7005 10.8822 44.9609 10.2246C45.2214 9.56055 45.5664 8.94857 45.9961 8.38867C46.4258 7.82878 46.8945 7.3763 47.4023 7.03125C47.9102 6.67969 48.4115 6.50391 48.9062 6.50391ZM48.7109 7.30469C48.4049 7.30469 48.1022 7.43164 47.8027 7.68555C47.5033 7.93945 47.2298 8.25195 46.9824 8.62305C46.735 8.99414 46.5365 9.36849 46.3867 9.74609C46.2435 10.1172 46.1719 10.4232 46.1719 10.6641C46.1719 10.7161 46.1979 10.7422 46.25 10.7422C46.4844 10.7422 46.7676 10.6576 47.0996 10.4883C47.4316 10.3125 47.7572 10.0846 48.0762 9.80469C48.3952 9.52474 48.6621 9.21875 48.877 8.88672C49.0918 8.54818 49.1992 8.21615 49.1992 7.89062C49.1992 7.5 49.0365 7.30469 48.7109 7.30469ZM54.1211 6.50391C54.3294 6.50391 54.4922 6.59831 54.6094 6.78711C54.7266 6.97591 54.7852 7.22005 54.7852 7.51953C54.7852 7.80599 54.7461 8.15104 54.668 8.55469L54.3164 10.3516C54.4401 10.1302 54.7233 9.72656 55.166 9.14062C55.459 8.75651 55.7975 8.36263 56.1816 7.95898C56.5723 7.54883 56.9564 7.20378 57.334 6.92383C57.7181 6.64388 58.0404 6.50391 58.3008 6.50391C58.9518 6.50391 59.2773 6.93359 59.2773 7.79297C59.2773 8.39844 59.1862 9.10807 59.0039 9.92188L58.3594 12.9297C58.3203 13.0859 58.3008 13.2487 58.3008 13.418C58.3008 13.7435 58.3659 13.9062 58.4961 13.9062C58.6589 13.9062 58.8542 13.7923 59.082 13.5645C59.3099 13.3301 59.5052 13.1315 59.668 12.9688L59.7852 12.832C59.8112 12.832 59.86 12.8939 59.9316 13.0176C60.0033 13.1413 60.0391 13.2292 60.0391 13.2812C59.9284 13.4701 59.7266 13.7109 59.4336 14.0039C59.1471 14.2969 58.8346 14.5573 58.4961 14.7852C58.1576 15.0065 57.8516 15.1172 57.5781 15.1172C57.3698 15.1172 57.207 15.0228 57.0898 14.834C56.9727 14.6452 56.9141 14.401 56.9141 14.1016C56.9141 13.9062 56.9596 13.5612 57.0508 13.0664L57.7344 9.84375C57.8255 9.40104 57.8711 9.04948 57.8711 8.78906C57.8711 8.22917 57.7474 7.94922 57.5 7.94922C57.2852 7.94922 56.9954 8.11198 56.6309 8.4375C56.2663 8.75651 55.8854 9.18294 55.4883 9.7168C55.0977 10.2507 54.7428 10.8464 54.4238 11.5039C54.1048 12.1549 53.8802 12.8125 53.75 13.4766L53.418 15C53.2422 15.0521 53.0404 15.0781 52.8125 15.0781C52.5911 15.0781 52.3698 15.0521 52.1484 15L53.3008 8.98438C53.3659 8.53516 53.3984 8.27474 53.3984 8.20312C53.3984 7.8776 53.3333 7.71484 53.2031 7.71484C53.0924 7.71484 52.9264 7.81901 52.7051 8.02734C52.6009 8.13151 52.487 8.24544 52.3633 8.36914C52.2461 8.49284 52.168 8.58073 52.1289 8.63281C52.1029 8.63281 52.054 8.57096 51.9824 8.44727C51.9108 8.32357 51.875 8.23568 51.875 8.18359C51.9792 8.00781 52.168 7.78971 52.4414 7.5293C52.7148 7.26237 53.0078 7.02474 53.3203 6.81641C53.6328 6.60807 53.8997 6.50391 54.1211 6.50391ZM61.8164 6.79688H63.1836L63.6523 4.41406C63.6914 4.28385 64.0104 4.21875 64.6094 4.21875C64.7396 4.21875 64.8568 4.22526 64.9609 4.23828L64.4727 6.79688H66.25C66.3151 6.79688 66.3477 6.88151 66.3477 7.05078C66.3477 7.20052 66.2891 7.38932 66.1719 7.61719H64.3164L63.2812 12.9297C63.2422 13.0859 63.2227 13.2487 63.2227 13.418C63.2227 13.7435 63.2878 13.9062 63.418 13.9062C63.5807 13.9062 63.776 13.7923 64.0039 13.5645C64.2318 13.3301 64.4271 13.1315 64.5898 12.9688L64.707 12.832C64.7331 12.832 64.7819 12.8939 64.8535 13.0176C64.9251 13.1413 64.9609 13.2292 64.9609 13.2812C64.8503 13.4701 64.6484 13.7109 64.3555 14.0039C64.069 14.2969 63.7565 14.5573 63.418 14.7852C63.0794 15.0065 62.7734 15.1172 62.5 15.1172C62.2917 15.1172 62.1289 15.0228 62.0117 14.834C61.8945 14.6452 61.8359 14.401 61.8359 14.1016C61.8359 13.9062 61.8815 13.5612 61.9727 13.0664L63.0273 7.61719H61.6406C61.6016 7.61719 61.582 7.54557 61.582 7.40234C61.582 7.23307 61.6602 7.03125 61.8164 6.79688ZM75.7617 6.50391C76.5299 6.50391 77.1257 6.77083 77.5488 7.30469C77.972 7.83854 78.1836 8.57422 78.1836 9.51172C78.1836 10.1823 78.0534 10.8496 77.793 11.5137C77.5326 12.1712 77.1908 12.7702 76.7676 13.3105C76.3444 13.8509 75.8789 14.2839 75.3711 14.6094C74.8633 14.9349 74.362 15.0977 73.8672 15.0977C73.0859 15.0977 72.4902 14.8438 72.0801 14.3359C71.6699 13.8281 71.4648 13.1055 71.4648 12.168C71.4648 11.4909 71.5918 10.8203 71.8457 10.1562C72.1061 9.48568 72.4479 8.87695 72.8711 8.33008C73.2943 7.77669 73.7565 7.33398 74.2578 7.00195C74.7656 6.66992 75.2669 6.50391 75.7617 6.50391ZM75.5273 7.30469C75.2018 7.30469 74.8861 7.44792 74.5801 7.73438C74.2741 8.01432 73.9974 8.38216 73.75 8.83789C73.5026 9.29362 73.3073 9.79167 73.1641 10.332C73.0208 10.8724 72.9492 11.3997 72.9492 11.9141C72.9492 12.6693 73.0697 13.2552 73.3105 13.6719C73.5514 14.0885 73.8542 14.2969 74.2188 14.2969C74.5443 14.2969 74.8535 14.1569 75.1465 13.877C75.446 13.5905 75.7129 13.2194 75.9473 12.7637C76.1816 12.3014 76.3639 11.8001 76.4941 11.2598C76.6309 10.7194 76.6992 10.1888 76.6992 9.66797C76.6992 8.89974 76.5951 8.3138 76.3867 7.91016C76.1784 7.50651 75.8919 7.30469 75.5273 7.30469ZM86.0938 1.34766C86.9271 1.34766 87.4609 1.56901 87.6953 2.01172C87.6953 2.85807 87.4609 3.28125 86.9922 3.28125C86.7839 3.28125 86.5983 3.18359 86.4355 2.98828C86.2793 2.78646 86.1198 2.58789 85.957 2.39258C85.8008 2.19076 85.612 2.08984 85.3906 2.08984C84.974 2.08984 84.5312 2.51628 84.0625 3.36914C83.6003 4.20898 83.2357 5.39714 82.9688 6.93359V6.97266C82.9688 7.02474 82.9883 7.05078 83.0273 7.05078H85.2734C85.3385 7.05078 85.3711 7.12891 85.3711 7.28516C85.3711 7.5 85.2995 7.72135 85.1562 7.94922H82.8711C82.7995 7.94922 82.7604 8.0013 82.7539 8.10547L81.6797 13.9453C81.3672 15.7552 80.8171 17.1354 80.0293 18.0859C79.2415 19.0365 78.3854 19.5117 77.4609 19.5117C77.0052 19.5117 76.6471 19.4303 76.3867 19.2676C76.1263 19.1048 75.957 18.9193 75.8789 18.7109C75.8659 18.4115 75.9375 18.1445 76.0938 17.9102C76.25 17.6758 76.4453 17.5586 76.6797 17.5586C76.862 17.5586 77.0215 17.6562 77.1582 17.8516C77.2884 18.0534 77.4284 18.252 77.5781 18.4473C77.7214 18.6491 77.9036 18.75 78.125 18.75C78.3854 18.75 78.6296 18.597 78.8574 18.291C79.0918 17.9915 79.3034 17.6172 79.4922 17.168C79.681 16.7188 79.8372 16.2695 79.9609 15.8203C80.0846 15.3711 80.1693 15 80.2148 14.707L81.3867 8.08594V8.04688C81.3867 7.98177 81.3672 7.94922 81.3281 7.94922H80.0586C80.0326 7.94922 80.0195 7.92969 80.0195 7.89062C80.0195 7.8125 80.0684 7.70833 80.166 7.57812C80.2637 7.44141 80.3841 7.32096 80.5273 7.2168C80.6771 7.10612 80.8203 7.05078 80.957 7.05078H81.5234C81.5755 7.05078 81.6146 6.99219 81.6406 6.875C81.8164 5.80729 82.1289 4.85677 82.5781 4.02344C83.0339 3.1901 83.5677 2.53581 84.1797 2.06055C84.7982 1.58529 85.4362 1.34766 86.0938 1.34766ZM91.1328 13.0664L92.9688 3.59375C93.0078 3.39844 93.0273 3.21615 93.0273 3.04688C93.0273 2.79948 92.6302 2.67578 91.8359 2.67578C91.7969 2.67578 91.7773 2.63672 91.7773 2.55859C91.7773 2.40234 91.8294 2.27214 91.9336 2.16797C92.806 2.08984 93.6393 1.90755 94.4336 1.62109C94.5117 1.66016 94.5508 1.78385 94.5508 1.99219C94.5508 2.13542 94.4661 2.6237 94.2969 3.45703L92.4414 12.9297C92.4023 13.0859 92.3828 13.2487 92.3828 13.418C92.3828 13.7435 92.4479 13.9062 92.5781 13.9062C92.6562 13.9062 92.7507 13.8704 92.8613 13.7988C92.972 13.7272 93.0859 13.6393 93.2031 13.5352C93.3203 13.431 93.4538 13.2975 93.6035 13.1348C93.7533 12.9655 93.8411 12.8646 93.8672 12.832C93.9062 12.832 93.9583 12.8939 94.0234 13.0176C94.0885 13.1413 94.1211 13.2292 94.1211 13.2812C94.0104 13.4701 93.8086 13.7109 93.5156 14.0039C93.2292 14.2969 92.9167 14.5573 92.5781 14.7852C92.2396 15.0065 91.9336 15.1172 91.6602 15.1172C91.4648 15.1172 91.3053 15.0228 91.1816 14.834C91.0579 14.6452 90.9961 14.401 90.9961 14.1016C90.9961 13.8997 91.0417 13.5547 91.1328 13.0664ZM99.7852 6.50391C100.553 6.50391 101.149 6.77083 101.572 7.30469C101.995 7.83854 102.207 8.57422 102.207 9.51172C102.207 10.1823 102.077 10.8496 101.816 11.5137C101.556 12.1712 101.214 12.7702 100.791 13.3105C100.368 13.8509 99.9023 14.2839 99.3945 14.6094C98.8867 14.9349 98.3854 15.0977 97.8906 15.0977C97.1094 15.0977 96.5137 14.8438 96.1035 14.3359C95.6934 13.8281 95.4883 13.1055 95.4883 12.168C95.4883 11.4909 95.6152 10.8203 95.8691 10.1562C96.1296 9.48568 96.4714 8.87695 96.8945 8.33008C97.3177 7.77669 97.7799 7.33398 98.2812 7.00195C98.7891 6.66992 99.2904 6.50391 99.7852 6.50391ZM99.5508 7.30469C99.2253 7.30469 98.9095 7.44792 98.6035 7.73438C98.2975 8.01432 98.0208 8.38216 97.7734 8.83789C97.526 9.29362 97.3307 9.79167 97.1875 10.332C97.0443 10.8724 96.9727 11.3997 96.9727 11.9141C96.9727 12.6693 97.0931 13.2552 97.334 13.6719C97.5749 14.0885 97.8776 14.2969 98.2422 14.2969C98.5677 14.2969 98.877 14.1569 99.1699 13.877C99.4694 13.5905 99.7363 13.2194 99.9707 12.7637C100.205 12.3014 100.387 11.8001 100.518 11.2598C100.654 10.7194 100.723 10.1888 100.723 9.66797C100.723 8.89974 100.618 8.3138 100.41 7.91016C100.202 7.50651 99.9154 7.30469 99.5508 7.30469ZM105.996 6.50391C106.204 6.50391 106.367 6.59831 106.484 6.78711C106.602 6.97591 106.66 7.22005 106.66 7.51953C106.66 7.78646 106.621 8.13151 106.543 8.55469L105.957 11.543C105.853 12.1484 105.801 12.5586 105.801 12.7734C105.801 13.138 105.859 13.3984 105.977 13.5547C106.094 13.7109 106.302 13.7891 106.602 13.7891C106.842 13.7891 107.109 13.6784 107.402 13.457C107.695 13.2357 107.988 12.9427 108.281 12.5781C108.574 12.2135 108.841 11.8164 109.082 11.3867C109.329 10.9505 109.528 10.5208 109.678 10.0977C109.827 9.67448 109.902 9.29688 109.902 8.96484C109.902 8.69792 109.808 8.40495 109.619 8.08594C109.43 7.76693 109.336 7.53255 109.336 7.38281C109.336 7.14844 109.414 6.94336 109.57 6.76758C109.727 6.5918 109.915 6.50391 110.137 6.50391C110.391 6.50391 110.599 6.55599 110.762 6.66016C110.944 6.9987 111.035 7.3763 111.035 7.79297C111.035 8.8737 110.719 9.99349 110.088 11.1523C109.671 11.9206 109.206 12.5944 108.691 13.1738C108.184 13.7533 107.679 14.2025 107.178 14.5215C106.683 14.8405 106.243 15 105.859 15C105.417 15 105.065 14.8405 104.805 14.5215C104.544 14.2025 104.414 13.7891 104.414 13.2812C104.414 12.9297 104.44 12.6432 104.492 12.4219L105.156 8.98438C105.234 8.71094 105.273 8.45052 105.273 8.20312C105.273 7.8776 105.208 7.71484 105.078 7.71484C105 7.71484 104.896 7.76693 104.766 7.87109C104.635 7.97526 104.505 8.09245 104.375 8.22266C104.251 8.34635 104.16 8.44401 104.102 8.51562L104.004 8.63281C103.978 8.63281 103.929 8.57096 103.857 8.44727C103.786 8.32357 103.75 8.23568 103.75 8.18359C103.854 8.00781 104.043 7.78971 104.316 7.5293C104.59 7.26237 104.883 7.02474 105.195 6.81641C105.508 6.60807 105.775 6.50391 105.996 6.50391ZM116.035 6.50391C116.634 6.50391 117.067 6.6569 117.334 6.96289C117.601 7.26888 117.734 7.60417 117.734 7.96875C117.734 8.54167 117.441 9.10807 116.855 9.66797C116.465 10.0391 116.045 10.3581 115.596 10.625C115.146 10.8854 114.714 11.084 114.297 11.2207C113.88 11.3574 113.529 11.4258 113.242 11.4258C113.19 11.4258 113.164 11.6536 113.164 12.1094C113.164 12.6953 113.278 13.1413 113.506 13.4473C113.734 13.7533 114.043 13.9062 114.434 13.9062C114.596 13.9062 114.792 13.8607 115.02 13.7695C115.247 13.6784 115.423 13.5807 115.547 13.4766C115.677 13.3659 115.749 13.3073 115.762 13.3008C115.775 13.2943 115.801 13.2747 115.84 13.2422C115.879 13.2031 115.996 13.0859 116.191 12.8906L116.25 12.832C116.276 12.832 116.325 12.8939 116.396 13.0176C116.468 13.1413 116.504 13.2292 116.504 13.2812C116.387 13.4896 116.178 13.7402 115.879 14.0332C115.586 14.3197 115.254 14.5736 114.883 14.7949C114.512 15.0098 114.147 15.1172 113.789 15.1172C113.112 15.1172 112.594 14.8535 112.236 14.3262C111.878 13.7988 111.699 13.0729 111.699 12.1484C111.699 11.5234 111.829 10.8822 112.09 10.2246C112.35 9.56055 112.695 8.94857 113.125 8.38867C113.555 7.82878 114.023 7.3763 114.531 7.03125C115.039 6.67969 115.54 6.50391 116.035 6.50391ZM115.84 7.30469C115.534 7.30469 115.231 7.43164 114.932 7.68555C114.632 7.93945 114.359 8.25195 114.111 8.62305C113.864 8.99414 113.665 9.36849 113.516 9.74609C113.372 10.1172 113.301 10.4232 113.301 10.6641C113.301 10.7161 113.327 10.7422 113.379 10.7422C113.613 10.7422 113.896 10.6576 114.229 10.4883C114.561 10.3125 114.886 10.0846 115.205 9.80469C115.524 9.52474 115.791 9.21875 116.006 8.88672C116.221 8.54818 116.328 8.21615 116.328 7.89062C116.328 7.5 116.165 7.30469 115.84 7.30469ZM124.284 0.94C124.164 1.40667 124.01 1.91333 123.824 2.46C123.637 3.00667 123.43 3.55333 123.204 4.1C122.99 4.63333 122.777 5.14 122.564 5.62H121.244C121.377 5.11333 121.504 4.57333 121.624 4C121.757 3.41333 121.877 2.84 121.984 2.28C122.104 1.70667 122.197 1.18667 122.264 0.719999H124.144L124.284 0.94ZM120.584 0.94C120.464 1.40667 120.31 1.91333 120.124 2.46C119.937 3.00667 119.73 3.55333 119.504 4.1C119.29 4.63333 119.077 5.14 118.864 5.62H117.584C117.677 5.24667 117.77 4.84667 117.864 4.42C117.957 3.99333 118.044 3.56667 118.124 3.14C118.217 2.7 118.297 2.27333 118.364 1.86C118.444 1.44667 118.51 1.06667 118.564 0.719999H120.444L120.584 0.94Z" fill="#81817F"/>
</svg>
