<svg width="306" height="85" viewBox="0 0 306 85" fill="none" xmlns="http://www.w3.org/2000/svg">
<path d="M20.4328 60.479C19.412 60.4713 18.8978 59.582 18.8903 57.8111L18.905 55.8736C18.9482 50.1446 19.2341 45.3758 19.7629 41.5672C21.5486 31.3095 23.5667 22.012 25.8171 13.6745C26.6743 10.5143 27.1882 8.67432 27.3588 8.15476C27.6962 7.61562 28.0422 7.31614 28.3969 7.25631C28.7515 7.19649 28.9913 7.16704 29.1163 7.16799C29.5121 7.17097 29.8446 7.28807 30.1137 7.51927C30.4038 7.7298 30.5473 8.03297 30.5443 8.42879C30.5431 8.59545 30.5208 8.78279 30.4776 8.9908C29.6107 10.6718 28.9122 12.1353 28.3819 13.3814C27.8517 14.6274 27.2985 16.1545 26.7223 17.9627C24.3524 25.5701 22.6923 32.9849 21.7419 40.2071C21.1297 44.0359 20.8084 47.9711 20.7779 52.0126C20.7601 54.3667 20.8708 56.2635 21.11 57.7028L21.1689 58.172L21.3186 59.0482C21.442 59.2574 21.5033 59.4141 21.5025 59.5183C21.5014 59.6641 21.3863 59.7362 21.1572 59.7345C20.8655 59.7323 20.4599 59.6459 19.9403 59.4753C19.566 59.3891 19.3789 59.3356 19.379 59.3148L19.4114 59.1588C19.58 58.91 19.6708 57.9211 19.6838 56.192C19.7174 51.7338 19.0266 46.6555 17.6112 40.9572C15.7285 33.6719 13.3443 27.9767 10.4585 23.8715L9.50043 22.458C8.80091 21.286 7.74881 19.903 6.34413 18.3091C3.82421 15.415 2.31906 13.3307 1.82865 12.0561C1.54265 11.3039 1.40122 10.7195 1.40436 10.3028C1.41332 9.11538 2.17052 8.16273 3.67598 7.44489C4.38681 7.11691 5.33745 6.75949 6.5279 6.37262C10.0341 5.56571 13.5588 5.06102 17.1021 4.85857C20.6454 4.65612 23.9587 4.56652 27.0419 4.58977C36.25 4.65921 45.7551 5.39758 55.5573 6.80487C56.6395 6.95887 57.7218 7.09204 58.8044 7.20437C59.2827 7.31215 59.5199 7.62645 59.516 8.14726C59.5119 8.68892 59.2597 8.98911 58.7592 9.04783L58.6655 9.04713C58.103 9.04288 56.1466 8.77812 52.7963 8.25284C45.3888 7.00945 37.4247 6.35562 28.9041 6.29136C27.2167 6.27864 25.5394 6.29724 23.8723 6.34717C21.0388 6.36747 18.2564 6.50274 15.5253 6.75298C12.8151 6.98255 10.0817 7.54529 7.32482 8.44119C5.61292 8.90746 4.50541 9.34704 4.00228 9.75992C3.52014 10.1521 3.2775 10.5566 3.27436 10.9732C3.26808 11.8065 4.00776 13.1767 5.49343 15.0838L5.64802 15.3037C11.4748 21.7229 15.7766 30.0576 18.5536 40.308C20.4395 47.1558 21.604 52.9772 22.047 57.7724L22.0735 58.3976C22.0682 59.1059 21.8557 59.6564 21.436 60.0491C21.1005 60.3382 20.7661 60.4815 20.4328 60.479ZM31.4434 54.9681C30.6726 54.9623 30.2373 54.6674 30.1375 54.0833C30.0779 53.7078 30.0491 53.3743 30.0513 53.0826C30.0557 52.4993 30.1445 51.7812 30.3176 50.9283L30.4153 50.3978C31.2194 45.987 32.1484 41.5981 33.2022 37.2309C34.7311 30.6381 36.61 24.6104 38.8387 19.1479C40.6861 14.5367 42.4838 10.9772 44.2319 8.46951C44.6744 7.80617 45.22 7.28943 45.8686 6.91931C46.266 6.71397 46.6522 6.61271 47.0272 6.61554C47.5897 6.61978 48.1192 6.85295 48.6157 7.31504C49.2972 8.11187 49.6323 9.27068 49.6208 10.7915C49.6142 11.6664 49.4598 12.8007 49.1576 14.1943L48.9304 15.3176C46.8665 23.7815 43.3039 32.0674 38.2426 40.1752C37.0406 42.1037 35.59 43.8324 33.8909 45.3613C33.598 45.5258 33.3161 45.607 33.0453 45.605C32.837 45.6034 32.6499 45.5499 32.484 45.4445C32.0901 45.1915 31.8836 44.9399 31.8647 44.6898C31.8457 44.4396 31.8365 44.2833 31.8369 44.2208C31.8401 43.8042 32.072 43.4413 32.5327 43.1323C33.8298 42.4129 35.2152 41.0379 36.6889 39.0072C41.174 32.7076 44.4021 25.9609 46.3731 18.7672C46.7384 17.2907 46.9648 16.2716 47.0524 15.7097C47.3561 14.1078 47.5126 12.7027 47.5217 11.4944C47.5277 10.7028 47.3872 9.99335 47.1002 9.36617C47.0183 9.17805 46.9149 9.08351 46.7899 9.08257C46.6649 9.08163 46.4551 9.26755 46.1606 9.64034L45.8766 10.0132C44.6156 11.4621 43.5204 13.0268 42.5911 14.7073C41.6827 16.3672 40.8366 18.0588 40.0527 19.7821L39.9261 19.9999C37.6582 25.1287 35.8562 30.6361 34.5201 36.5221C33.4175 41.8264 32.705 46.5295 32.3824 50.6314L32.3419 51.8498L32.3671 52.6625L32.4577 53.0695L32.427 53.0068C32.3856 52.9648 32.282 52.8911 32.1161 52.7857C31.9711 52.6804 31.7531 52.5746 31.4622 52.4682C32.9326 50.8751 34.5952 48.6584 36.45 45.8181L37.8091 43.7971C39.7481 40.8325 41.1799 38.8328 42.1044 37.7981C42.6925 37.1775 43.2573 36.8692 43.7989 36.8733C44.0906 36.8755 44.3711 36.9714 44.6406 37.1609C45.4073 37.7084 45.8573 38.8056 45.9908 40.4524L46.0497 40.9216C46.1986 43.277 46.6566 44.7076 47.4237 45.2134C47.6107 45.2773 47.8188 45.3101 48.0479 45.3118C49.0479 45.3194 50.5114 44.6429 52.4384 43.2824C52.9199 42.9735 53.2544 42.8198 53.4419 42.8212L53.6291 42.8539C53.8577 42.9389 53.9715 43.0439 53.9705 43.1689L53.9691 43.3564C53.9663 43.7314 53.0647 44.4851 51.2645 45.6174C49.9247 46.4614 48.7653 46.8798 47.7862 46.8724C46.5362 46.863 45.5827 46.2204 44.9256 44.9445C44.5575 44.0251 44.2542 42.8144 44.0155 41.3126L43.836 40.2487C43.7569 39.6856 43.6444 39.4035 43.4986 39.4024C43.3111 39.4009 43.0282 39.6176 42.6499 40.0522L41.5151 41.3562C40.1269 43.0958 38.8425 44.8987 37.6617 46.7648L34.7502 51.5867C34.1799 52.6241 33.6424 53.4534 33.1377 54.0746C32.6331 54.675 32.0684 54.9729 31.4434 54.9681ZM56.557 48.2823C54.7237 48.2685 53.4147 47.8107 52.6298 46.9089C52.2178 46.2808 52.0144 45.623 52.0196 44.9355C52.0225 44.5605 52.0879 44.1756 52.2158 43.7807C52.5783 42.6793 53.0544 41.7037 53.6442 40.8539L53.9598 40.45C55.7895 38.1721 57.5482 37.0187 59.236 36.9897C60.1313 37.059 60.837 37.4185 61.3529 38.0682C61.5791 38.4658 61.6906 38.8729 61.6875 39.2895C61.6848 39.6437 61.5987 40.0076 61.4292 40.3814C60.9852 41.253 60.4483 41.999 59.8186 42.6193C58.5592 43.8598 57.002 44.5356 55.1469 44.6466C54.4604 44.5164 54.0663 44.2843 53.9646 43.9502C53.863 43.6161 53.8128 43.3657 53.814 43.199C53.8165 42.8657 53.9126 42.5539 54.1023 42.2637C54.3552 41.8906 54.7732 41.7062 55.3565 41.7106L55.6065 41.7125C56.1275 41.6956 56.5551 41.6363 56.8892 41.5347C57.2441 41.4332 57.5263 41.3103 57.7357 41.166C57.9451 41.0218 58.1025 40.8771 58.2078 40.7321C58.3132 40.5662 58.3768 40.4208 58.3985 40.296C58.4413 40.1505 58.463 40.0361 58.4636 39.9527L58.4333 39.8275C58.0994 39.9083 57.6915 40.124 57.2097 40.4745C56.7487 40.8252 56.3288 41.2492 55.95 41.7463L55.4456 42.3363C54.855 43.2902 54.5564 44.2151 54.5496 45.1109C54.5443 45.8192 54.9576 46.2598 55.7897 46.4328C56.1017 46.4976 56.3722 46.5413 56.6012 46.5639C56.7054 46.5647 56.7782 46.5756 56.8197 46.5968L57.445 46.5702C59.1116 46.5828 60.8644 46.2106 62.7035 45.4536C64.9395 44.5538 67.2093 43.3209 69.5129 41.7549C69.6802 41.6728 69.8367 41.6323 69.9825 41.6334C70.3367 41.6361 70.5123 41.8353 70.5093 42.2311C70.5076 42.4603 70.3707 42.6572 70.0986 42.8218C69.282 43.3573 68.3506 43.9337 67.3042 44.5508C64.6049 46.1138 61.7522 47.2798 58.7463 48.0488C58.0159 48.21 57.2862 48.2878 56.557 48.2823ZM87.7858 63.6433C86.7265 63.2186 86.117 62.5473 85.9572 61.6294C85.8183 60.7117 85.7515 59.8987 85.7568 59.1904C85.7614 58.5862 85.7851 58.2114 85.8278 58.0659C86.0163 55.1714 86.3505 52.2988 86.8303 49.4482C88.0571 41.478 89.7727 33.6157 91.9771 25.8613C93.2803 21.5794 94.6304 17.9748 96.0275 15.0478C96.557 13.9059 96.9793 13.1591 97.2945 12.8073C97.6522 12.3308 98.0915 12.0945 98.6123 12.0985C98.7998 12.0999 98.9766 12.1429 99.1426 12.2275C99.8071 12.5241 100.137 13.0371 100.131 13.7662C100.128 14.1829 99.9165 14.5875 99.4969 14.9802C98.2594 16.0751 97.0795 17.8266 95.9572 20.2349C95.3857 21.4181 94.7174 23.0173 93.9522 25.0324C91.5898 31.6398 89.8599 38.627 88.7627 45.9939C88.5421 47.6173 88.387 48.8453 88.2974 49.678C87.9986 53.3842 87.8425 56.1331 87.8289 57.9247C87.815 59.7788 88.0059 60.7074 88.4017 60.7103C88.9225 60.7143 90.4192 58.3922 92.8919 53.744L100.751 39.2716L104.776 31.8018C105.304 30.889 105.811 29.9658 106.297 29.0319C107.672 26.3755 108.62 24.8722 109.144 24.522C109.542 24.275 109.928 24.1529 110.303 24.1557C110.449 24.1568 110.584 24.1683 110.709 24.19C111.394 24.4869 111.808 24.8546 111.951 25.2932C112.093 25.7109 112.163 26.1698 112.159 26.6698L112.156 27.0448C112.176 27.1491 112.186 27.2638 112.185 27.3887C112.179 28.1804 112.152 28.9615 112.105 29.732C112.057 30.4816 112.021 31.221 111.994 31.9499C111.994 34.7209 112.215 37.233 112.656 39.4864C113.217 42.5115 114.302 45.0823 115.911 47.1987C117.251 49.0005 118.836 50.2104 120.665 50.8284L121.288 51.0831C121.496 51.1055 121.714 51.1488 121.943 51.213C122.401 51.3206 122.869 51.3762 123.348 51.3799C127.015 51.4075 130.446 49.4542 133.643 45.5198C134.883 43.9875 135.925 42.5578 136.769 41.2308C140.672 34.7809 143.173 27.7058 144.273 20.0055C144.451 18.4443 144.546 16.8721 144.558 15.2888C144.576 12.9347 144.174 10.9629 143.353 9.37328C143.086 8.82958 142.954 8.44316 142.955 8.214C142.957 7.964 143.042 7.75631 143.21 7.5909C143.462 7.32196 143.765 7.18883 144.119 7.1915C144.536 7.19464 144.867 7.45756 145.113 7.98027C145.562 9.33785 145.806 10.121 145.846 10.3296C146.066 11.5396 146.171 12.7488 146.162 13.9571C146.151 15.4154 145.938 17.4347 145.523 20.0149C145.521 20.1816 145.413 20.7225 145.198 21.6375C143.938 28.4824 141.481 35.2453 137.826 41.9263C137.341 42.756 136.845 43.5648 136.339 44.3526C136.065 44.7464 135.802 45.1507 135.549 45.5655C134.475 47.0157 133.602 48.1238 132.93 48.8895C132.362 49.5311 131.618 50.2026 130.696 50.904C128.432 52.6995 125.873 53.5865 123.019 53.5649C122.519 53.5612 121.916 53.4629 121.209 53.27L120.398 53.0764L119.401 52.6314C118.778 52.3767 118.238 52.1226 117.782 51.8691C117.346 51.595 116.798 51.143 116.136 50.5129C113.715 48.2655 112.01 45.0129 111.022 40.7554C110.404 37.0006 110.095 33.8419 110.093 31.2793C110.048 29.0081 109.89 27.8715 109.619 27.8694C109.41 27.8678 108.442 29.1939 106.714 31.8476L106.208 32.6251C105.976 32.9567 105.238 34.1386 103.993 36.171C101.209 40.6918 98.155 46.4918 94.8307 53.5711C94.8093 53.6543 94.7562 53.7893 94.6714 53.9762C94.2909 54.7025 93.4232 56.4981 92.0682 59.363C91.3914 60.7121 90.8005 61.7076 90.2956 62.3497C89.6224 63.2196 88.7858 63.6508 87.7858 63.6433ZM151.054 48.995C149.221 48.9812 147.912 48.5234 147.127 47.6216C146.715 46.9935 146.512 46.3357 146.517 45.6482C146.52 45.2732 146.585 44.8882 146.713 44.4934C147.076 43.3919 147.552 42.4163 148.142 41.5666L148.457 41.1627C150.287 38.8847 152.046 37.7313 153.733 37.7024C154.629 37.7716 155.334 38.1311 155.85 38.7809C156.076 39.1784 156.188 39.5855 156.185 40.0022C156.182 40.3563 156.096 40.7203 155.927 41.094C155.482 41.9657 154.946 42.7116 154.316 43.3319C153.056 44.5725 151.499 45.2482 149.644 45.3592C148.958 45.2291 148.564 44.9969 148.462 44.6628C148.36 44.3287 148.31 44.0783 148.311 43.9117C148.314 43.5783 148.41 43.2665 148.6 42.9763C148.852 42.6032 149.271 42.4188 149.854 42.4232L150.104 42.4251C150.625 42.4082 151.052 42.3489 151.386 42.2473C151.741 42.1458 152.024 42.0229 152.233 41.8787C152.442 41.7344 152.6 41.5898 152.705 41.4447C152.81 41.2788 152.874 41.1335 152.896 41.0086C152.939 40.8631 152.96 40.7487 152.961 40.6654L152.931 40.5401C152.597 40.621 152.189 40.8366 151.707 41.1872C151.246 41.5379 150.826 41.9618 150.447 42.459L149.943 43.0489C149.352 44.0028 149.054 44.9277 149.047 45.8235C149.042 46.5318 149.455 46.9724 150.287 47.1454C150.599 47.2102 150.87 47.254 151.099 47.2765C151.203 47.2773 151.276 47.2883 151.317 47.3094L151.942 47.2829C153.609 47.2954 155.362 46.9232 157.201 46.1663C159.437 45.2664 161.707 44.0335 164.01 42.4675C164.177 42.3854 164.334 42.3449 164.48 42.346C164.834 42.3487 165.01 42.548 165.007 42.9438C165.005 43.1729 164.868 43.3698 164.596 43.5344C163.779 44.07 162.848 44.6463 161.802 45.2634C159.102 46.8264 156.25 47.9925 153.244 48.7615C152.513 48.9226 151.783 49.0005 151.054 48.995ZM171.364 61.9298C170.489 61.9232 169.992 61.4923 169.873 60.6372C169.974 58.3046 170.221 55.9835 170.613 53.6739C171.166 49.4904 171.659 46.2961 172.092 44.091C174.8 30.2985 178.28 17.7307 182.533 6.38741L182.692 6.04484C183.731 3.63594 184.396 2.39093 184.689 2.3098L185.845 2.25602C186.595 2.26167 187.063 2.41104 187.248 2.70411C187.33 2.89223 187.37 3.11129 187.368 3.36129L187.368 3.39253C187.363 4.01752 186.533 6.38632 184.877 10.4989C184.134 12.2851 183.412 14.1026 182.711 15.9515C176.647 32.6979 171.54 44.0452 167.391 49.9932L167.076 50.3658C166.067 51.5666 165.135 52.1638 164.281 52.1573C163.823 52.1539 163.396 52.0465 163.002 51.8352C162.421 51.4766 162.134 50.9223 162.14 50.1724C162.143 49.6515 162.199 49.152 162.307 48.6736C162.328 48.6321 162.339 48.5801 162.34 48.5176C163.343 45.3375 164.803 42.3276 166.72 39.4879C167.352 38.5759 168.057 37.7166 168.833 36.91C169.631 36.0826 170.615 35.4963 171.784 35.1509C173.013 35.1602 173.624 35.6648 173.617 36.6648C173.611 37.4773 173.096 37.963 172.074 38.1219C171.114 38.3647 169.993 39.2834 168.71 40.8779C167.027 43.0319 165.822 45.3875 165.094 47.9446C165.03 48.1733 164.997 48.3814 164.995 48.5689C164.995 48.6522 165.026 48.6941 165.088 48.6946C165.172 48.6952 165.318 48.5921 165.528 48.3854C167.398 46.3369 168.987 44.1301 170.297 41.7649C174.226 34.6485 177.918 25.8011 181.372 15.2227C181.694 14.0584 182.046 12.9152 182.43 11.793C183.365 9.25835 184.063 6.5552 184.522 3.68358L184.556 3.30883C184.514 3.30851 184.43 3.4433 184.303 3.71318L184.302 3.83818C184.654 4.09084 185.049 4.28132 185.485 4.40962C185.797 4.51614 186.098 4.64341 186.389 4.79144C186.41 4.7916 186.42 4.80209 186.42 4.82292C186.399 4.86443 186.367 4.89545 186.325 4.91596C186.304 4.91581 186.284 4.92607 186.263 4.94674L186.073 5.22657C185.61 5.76476 185.126 6.46946 184.619 7.34067C181.873 12.3201 179.293 18.8529 176.878 26.9391C173.842 37.1873 172.291 46.6447 172.226 55.3111C172.21 57.3943 172.354 59.0934 172.656 60.4082C172.649 61.3457 172.218 61.8529 171.364 61.9298ZM186.988 62.0476C186.113 62.041 185.616 61.6101 185.498 60.7551C185.599 58.4224 185.845 56.1013 186.238 53.7917C186.79 49.6082 187.283 46.414 187.716 44.2088C190.425 30.4164 193.905 17.8485 198.157 6.50524L198.316 6.16268C199.355 3.75378 200.021 2.50876 200.313 2.42763L201.47 2.37385C202.22 2.37951 202.687 2.52887 202.873 2.82194C202.955 3.01007 202.995 3.22912 202.993 3.47912L202.993 3.51037C202.988 4.13535 202.157 6.50415 200.501 10.6168C199.759 12.4029 199.037 14.2204 198.335 16.0694C192.271 32.8158 187.165 44.163 183.016 50.111L182.7 50.4837C181.691 51.6844 180.76 52.2816 179.905 52.2751C179.447 52.2717 179.021 52.1643 178.627 51.953C178.046 51.5944 177.758 51.0402 177.764 50.2902C177.768 49.7694 177.824 49.2698 177.932 48.7914C177.953 48.7499 177.964 48.6979 177.964 48.6354C178.967 45.4554 180.427 42.4455 182.345 39.6057C182.977 38.6938 183.681 37.8345 184.458 37.0278C185.256 36.2005 186.24 35.6141 187.409 35.2687C188.638 35.278 189.249 35.7826 189.241 36.7826C189.235 37.5951 188.721 38.0808 187.699 38.2398C186.739 38.4825 185.617 39.4012 184.334 40.9957C182.651 43.1498 181.446 45.5053 180.718 48.0624C180.654 48.2911 180.621 48.4992 180.62 48.6867C180.619 48.77 180.65 48.8119 180.713 48.8124C180.796 48.813 180.943 48.71 181.153 48.5032C183.022 46.4547 184.612 44.2479 185.921 41.8827C189.85 34.7663 193.542 25.9189 196.997 15.3405C197.318 14.1762 197.671 13.033 198.054 11.9109C198.99 9.37618 199.687 6.67303 200.147 3.80141L200.181 3.42666C200.139 3.42634 200.055 3.56113 199.928 3.83101L199.927 3.95601C200.279 4.20867 200.673 4.39915 201.11 4.52745C201.422 4.63397 201.723 4.76124 202.013 4.90927C202.034 4.90943 202.044 4.91992 202.044 4.94075C202.023 4.98226 201.992 5.01328 201.95 5.03379C201.929 5.03364 201.908 5.0439 201.887 5.06457L201.697 5.3444C201.235 5.8826 200.751 6.5873 200.244 7.4585C197.498 12.4379 194.917 18.9707 192.502 27.0569C189.466 37.3052 187.916 46.7625 187.851 55.4289C187.835 57.5122 187.978 59.2112 188.281 60.526C188.274 61.4635 187.843 61.9707 186.988 62.0476ZM194.886 54.9194C194.573 54.9171 194.251 54.8522 193.919 54.7246C193.339 54.1994 193.052 53.5931 193.057 52.9056C193.061 52.4473 193.213 51.5838 193.514 50.3152L193.61 50.0347C194.04 48.267 194.512 46.4893 195.025 44.7015C195.925 41.479 196.495 39.0249 196.737 37.3392C196.738 37.2558 196.728 37.1828 196.708 37.1202C196.714 36.3285 196.905 35.8508 197.281 35.687C197.657 35.5023 197.971 35.4109 198.221 35.4128C199.158 35.4199 199.654 35.9549 199.709 37.0178L199.516 37.7351C199.408 38.2135 199.205 38.8057 198.908 39.5118C198.333 41.1742 197.747 43.0136 197.148 45.03C197.083 45.3212 196.934 45.8305 196.699 46.5579C196.273 47.8047 195.94 49.0731 195.702 50.363C195.594 50.7997 195.539 51.1326 195.538 51.3618C195.535 51.6742 195.649 51.8314 195.878 51.8331C196.358 51.7325 197.376 50.7819 198.931 48.981C199.057 48.8153 199.173 48.6912 199.277 48.6086C202.326 44.9648 205.333 41.2895 208.298 37.5826C208.95 36.7542 209.718 35.8016 210.601 34.7249L211.327 33.8241C212.147 32.8511 212.859 32.3668 213.463 32.3714C213.879 32.3745 214.294 32.6381 214.707 33.162C214.789 33.2877 214.83 33.4442 214.828 33.6317C214.826 33.9859 214.666 34.4743 214.348 35.0969L214.253 35.3462C213.807 36.4887 213.34 37.5998 212.853 38.6795C211.052 42.6243 209.711 46.3435 208.831 49.837C208.828 50.1911 208.806 50.3889 208.764 50.4302L208.732 50.4612C208.628 50.4605 208.421 50.261 208.112 49.8628C207.803 49.4438 207.617 49.234 207.554 49.2336C207.512 49.2333 207.481 49.2434 207.46 49.2641C207.398 49.2636 207.366 49.253 207.367 49.2322C207.535 49.0459 207.702 48.9013 207.87 48.7984C208.289 48.4474 208.677 48.0858 209.034 47.7134C209.328 47.424 209.486 47.2585 209.507 47.217C211.901 44.7141 213.779 42.8637 215.143 41.6656C216.715 40.3232 218.002 39.6558 219.002 39.6634C219.502 39.6671 219.938 39.8267 220.311 40.142C220.579 40.4774 220.835 41.0002 221.08 41.7104C221.774 43.6323 222.639 44.941 223.675 45.6363C223.966 45.7843 224.434 45.8608 225.08 45.8656L225.487 45.8374C226.863 45.6187 228.169 45.1181 229.404 44.3357C229.844 44.089 230.283 43.8631 230.722 43.6581L232.606 42.4535C232.857 42.3304 233.087 42.2697 233.295 42.2712C233.399 42.272 233.513 42.3041 233.638 42.3676C233.908 42.4946 234.042 42.6415 234.041 42.8081L234.039 43.0894C234.036 43.4019 233.857 43.6818 233.501 43.9291L231.46 45.195C230.038 45.9968 228.773 46.6018 227.665 47.0102C226.579 47.4186 225.598 47.6196 224.723 47.613C223.036 47.6003 221.749 46.9343 220.863 45.6151C220.266 44.7355 219.773 43.7943 219.384 42.7913C219.2 42.3733 219.014 42.1635 218.827 42.1621C218.41 42.159 217.646 42.5699 216.536 43.3949C214.566 44.8592 212.635 46.8447 210.741 49.3513C210.53 49.6414 210.299 49.921 210.047 50.1899L209.889 50.4387C209.026 51.6197 208.355 52.2084 207.875 52.2048C206.772 52.0507 206.191 51.8067 206.131 51.4729C206.071 51.1391 206.042 50.8993 206.043 50.7535C206.046 50.316 206.154 49.848 206.366 49.3496L206.43 49.1313C206.983 47.573 207.578 46.0253 208.215 44.4884C209.448 41.2685 210.213 39.2429 210.511 38.4118C211.149 36.6249 211.534 35.3778 211.664 34.6704L211.728 34.4209L211.795 33.8901L211.826 33.9216C212.365 34.3215 212.832 34.5229 213.228 34.5259C213.394 34.5272 213.509 34.5176 213.572 34.4973L213.603 34.4975L213.037 34.962C212.009 35.8709 211.033 36.8115 210.109 37.7838C206.685 41.5497 203.415 45.5356 200.3 49.7414L198.186 52.413C198.06 52.5371 197.955 52.6613 197.871 52.7856C196.818 54.2152 195.823 54.9265 194.886 54.9194ZM199.657 31.486C199.032 31.4813 198.565 31.1236 198.258 30.4129C198.179 29.9331 198.14 29.5787 198.141 29.3495C198.143 29.1204 198.187 28.8603 198.272 28.5692C198.548 27.9255 198.832 27.5838 199.124 27.5444C199.416 27.5049 199.593 27.4854 199.655 27.4859C200.114 27.4893 200.498 27.6485 200.808 27.9633C201.077 28.2154 201.21 28.5393 201.207 28.9351C201.205 29.2059 201.162 29.4348 201.077 29.6217C201.077 29.6633 201.076 29.7258 201.075 29.8092L201.076 29.6842L201.11 29.4344C201.17 29.664 201.2 29.883 201.198 30.0913C201.195 30.4663 201.068 30.7779 200.816 31.026C200.501 31.3361 200.115 31.4895 199.657 31.486ZM227.272 82.5707C226.626 82.5658 226.086 82.343 225.652 81.9022C225.281 81.4411 225.086 80.9708 225.069 80.4915C225.052 80.0122 225.044 79.6476 225.046 79.3976C225.057 77.9601 225.392 76.3168 226.052 74.4675C228.585 67.2989 232.469 60.6614 237.702 54.5548C240.036 51.7807 242.491 49.445 245.068 47.5477C247.645 45.6504 249.937 44.251 251.944 43.3494C252.09 43.2672 252.226 43.2265 252.351 43.2275L252.538 43.2601C252.725 43.3865 252.817 43.5852 252.815 43.856C252.813 44.0226 252.75 44.1784 252.624 44.3233C251.329 44.6677 249.153 45.8909 246.096 47.9929C243.059 50.0743 240.396 52.3667 238.106 54.8704C234.113 59.4862 231.074 64.6405 228.989 70.3333L228.573 71.674C227.803 74.2724 227.413 76.3528 227.401 77.9153L227.395 78.634C227.391 79.2173 227.514 79.5099 227.764 79.5118C227.972 79.5134 228.255 79.3384 228.612 78.987C230.186 77.3738 231.575 75.6134 232.777 73.7057L234.39 71.1241C237.407 66.0633 239.854 60.7275 241.729 55.1165C243.311 49.8366 244.112 45.8217 244.133 43.0717L244.137 42.478C244.143 41.728 243.99 41.3519 243.677 41.3495C243.091 41.6576 242.526 42.0388 241.981 42.493C241.876 42.5964 241.761 42.6893 241.635 42.7716L240.156 44.1043C239.191 44.972 237.815 46.5346 236.027 48.792L234.198 50.997L233.883 51.3384C233.231 52.1669 232.559 52.8181 231.868 53.292C231.198 53.7662 230.644 54.0016 230.206 53.9983C229.686 53.9943 229.166 53.7717 228.649 53.3303C228.319 52.8694 228.156 52.3682 228.16 51.8265L228.194 51.4205C228.476 49.9434 229.039 48.5414 229.883 47.2144C230.051 46.9448 230.199 46.6751 230.326 46.4052C232.16 43.5856 234.038 41.7977 235.96 41.0413C236.649 40.8798 237.348 40.8018 238.056 40.8071C238.598 40.8112 238.973 40.8348 239.181 40.8781C239.888 41.0292 240.282 41.2718 240.363 41.6058C240.464 41.9399 240.514 42.1903 240.513 42.3569C240.511 42.6902 240.404 43.0019 240.194 43.292C239.92 43.665 239.523 43.8495 239.002 43.8456L238.69 43.812C238.315 43.705 237.951 43.6501 237.597 43.6475C237.097 43.6437 236.607 43.7442 236.126 43.9489C233.697 45.5348 232.014 47.7409 231.076 50.5672C230.989 51.0249 230.945 51.3475 230.944 51.535C230.942 51.7225 230.952 51.8163 230.973 51.8165L230.973 51.754C230.933 51.587 230.788 51.3984 230.54 51.1882C230.519 51.1672 230.509 51.1567 230.509 51.1567C230.488 51.1566 230.457 51.1563 230.415 51.156C230.374 51.1349 230.353 51.1035 230.354 51.0618C230.416 50.9998 230.511 50.9484 230.636 50.9077C230.74 50.8668 231.044 50.6399 231.547 50.227C231.778 50.0413 231.998 49.845 232.208 49.6382L232.554 49.3283C233.709 48.1704 234.822 46.9704 235.894 45.7284C236.882 44.5483 237.806 43.5345 238.667 42.6868L240.462 40.8565C241.176 40.1119 241.868 39.5441 242.537 39.1533C243.228 38.7627 243.761 38.5688 244.136 38.5716C244.698 38.5759 245.248 38.8404 245.786 39.3653C246.28 40.2024 246.523 41.0793 246.516 41.9959C246.511 42.6417 246.4 43.5159 246.184 44.6185C245.62 47.531 244.541 51.1584 242.945 55.5006C240.5 62.0657 237.525 68.3872 234.021 74.4651C232.775 76.6433 231.521 78.5922 230.258 80.3119C229.563 81.265 228.944 81.927 228.399 82.298C228.044 82.4828 227.668 82.5737 227.272 82.5707ZM268.566 51.975C268.316 51.9731 268.036 51.9293 267.724 51.8436C266.893 51.5457 266.417 51.1046 266.296 50.5203C266.155 49.9359 266.086 49.4354 266.089 49.0187C266.098 47.7688 266.663 46.023 267.784 43.7814L268.515 42.2243C268.873 41.727 269.281 41.4801 269.739 41.4835C270.344 41.4881 270.748 41.6682 270.954 42.024C271.16 42.3589 271.262 42.6409 271.26 42.8701C271.258 43.1617 271.162 43.4735 270.972 43.8054C269.984 44.9855 269.276 46.3135 268.848 47.7895C268.805 47.935 268.762 48.1534 268.718 48.4448L268.684 48.8508C268.704 48.9343 268.724 48.9761 268.745 48.9763C268.787 48.9766 268.829 48.9561 268.871 48.9147C269.982 47.9856 270.606 46.8027 270.741 45.3662C270.742 45.2204 270.733 45.0953 270.713 44.991C270.693 44.8658 270.683 44.7616 270.684 44.6783C270.522 44.0937 270.149 43.7367 269.567 43.6073C269.484 43.565 269.401 43.5436 269.318 43.5429C269.297 43.5428 269.244 43.584 269.16 43.6667L269.348 43.6994C269.702 43.7021 269.924 43.2767 270.014 42.4231C270.057 42.1526 270.122 41.8823 270.207 41.6121L270.332 41.613C271.454 42.0382 272.962 42.362 274.856 42.5847L276.012 42.6871C276.928 42.7357 277.834 42.7634 278.73 42.7701C281.001 42.7873 283.262 42.6585 285.514 42.3838C286.056 42.3879 286.325 42.6191 286.322 43.0774C286.319 43.4732 286.088 43.7006 285.629 43.7597C280.98 44.2038 276.77 44.4116 272.999 44.3832C271.478 44.3717 270.156 44.268 269.032 44.072C268.471 43.9636 268.128 43.7944 268.005 43.5643L267.977 43.0953C267.983 42.3662 268.153 41.8153 268.49 41.4429C268.847 41.0497 269.234 40.8547 269.65 40.8579L269.994 40.8917C271.47 41.2362 272.495 42.1189 273.068 43.54C273.21 43.9785 273.279 44.4895 273.275 45.0728C273.273 45.3436 273.26 45.604 273.238 45.8538C272.888 48.0387 271.874 49.8436 270.197 51.2685C269.547 51.7428 269.004 51.9783 268.566 51.975ZM283.134 84.492C282.697 84.4887 282.26 84.3604 281.825 84.1071C281.389 83.8747 281.089 83.5807 280.925 83.2253C280.617 82.6188 280.373 81.8774 280.192 81.001C280.011 80.1454 279.927 78.8218 279.94 77.0302C279.945 76.3844 279.971 75.7388 280.017 75.0933C280.294 71.5327 280.759 67.9841 281.41 64.4472C282.958 55.3545 285.015 46.3697 287.582 37.493C288.226 34.9769 289.28 32.0786 290.742 28.7978C291.398 27.4277 291.999 26.4218 292.546 25.7801C293.155 25.1388 293.845 24.8211 294.616 24.8269C294.845 24.8286 295.074 24.872 295.302 24.9571C295.863 25.2322 296.162 25.5782 296.201 25.9952C296.26 26.4123 296.289 26.7042 296.288 26.8708C296.281 27.8291 296.033 28.9315 295.544 30.1778L295.512 30.3026C294.047 33.9583 292.167 37.3921 289.872 40.6041L289.018 41.8477C287.902 43.4435 286.756 44.8307 285.581 46.0094C285.246 46.236 284.932 46.3483 284.641 46.3461C284.453 46.3446 284.276 46.3016 284.11 46.2171C283.55 45.942 283.272 45.5024 283.276 44.8982C283.279 44.5232 283.49 44.1602 283.91 43.8092C284.831 43.1495 285.544 42.5507 286.048 42.0128C286.762 41.2473 287.478 40.3569 288.194 39.3414C289.835 37.1662 291.291 34.6667 292.563 31.8429C293.008 30.8254 293.316 30.0464 293.487 29.506C293.806 28.6334 293.966 28.0929 293.968 27.8846L293.937 27.8219C293.853 27.8213 293.738 27.9662 293.59 28.2568L292.577 29.9054C291.289 32.1875 290.05 34.8761 288.86 37.9714C286.264 45.2228 284.343 52.6461 283.098 60.2411C282.792 62.1971 282.573 63.6539 282.44 64.6112C281.936 67.9825 281.671 71.366 281.645 74.7618C281.627 77.1159 281.862 79.0969 282.35 80.7048C282.412 80.8511 282.462 81.0077 282.503 81.1747C282.502 81.2372 282.585 81.394 282.749 81.6453C282.955 82.0219 283.162 82.2109 283.37 82.2125C283.412 82.2128 283.443 82.2026 283.464 82.182C283.485 82.1821 283.496 82.1405 283.496 82.0572L283.497 81.9009L284.725 80.6914C284.999 80.3601 285.241 80.0182 285.452 79.6656L285.831 79.1685C285.937 78.9193 286.063 78.6806 286.211 78.4526C286.465 77.9753 286.708 77.4875 286.941 76.9893C288.597 72.8558 289.442 68.5496 289.476 64.0705C289.482 63.2997 289.449 62.164 289.377 60.6634C289.114 56.7655 288.191 53.5084 286.606 50.8923C286.215 50.2643 285.772 49.6776 285.276 49.1322C285.193 49.0482 285.121 48.9643 285.059 48.8805C284.997 48.7759 284.936 48.6817 284.874 48.5979C284.523 48.0952 284.349 47.6668 284.352 47.3127C284.354 47.1043 284.418 46.8756 284.545 46.6266C284.819 46.1911 285.175 45.9126 285.614 45.7909C286.052 45.6692 286.511 45.5997 286.99 45.5825C287.449 45.5235 288.69 45.3245 290.714 44.9856L292.278 44.7474C295.344 44.2288 298.421 43.7312 301.508 43.2544L303.98 42.898L304.167 42.8995C304.646 42.9031 304.884 43.0924 304.882 43.4674C304.878 43.9257 304.574 44.2046 303.969 44.3043C300.07 44.7124 296.211 45.3708 292.391 46.2795L291.608 46.4924C290.46 46.7754 289.323 47.0897 288.195 47.4354C288.028 47.5175 287.892 47.5685 287.788 47.5886C287.558 47.6493 287.443 47.7214 287.442 47.8047C287.441 47.9506 287.564 48.2327 287.811 48.6513C289.865 52.5627 290.873 56.9454 290.837 61.7995C290.854 62.3204 290.86 62.8518 290.856 63.3934C290.818 68.4766 290.063 73.2627 288.591 77.7517C288.123 79.0191 287.647 80.078 287.161 80.9285C286.653 82.0081 285.948 82.9299 285.046 83.6939C284.438 84.231 283.801 84.4971 283.134 84.492Z" fill="#2D2D2D"/>
</svg>
