<svg width="106" height="16" viewBox="0 0 106 16" fill="none" xmlns="http://www.w3.org/2000/svg">
<path d="M6.94 0.719999C6.82 1.22667 6.69333 1.77333 6.56 2.36C6.42667 2.94667 6.30667 3.52 6.2 4.08C6.09333 4.64 6.00667 5.15333 5.94 5.62H4.04L3.9 5.4C4.02 4.93333 4.17333 4.43333 4.36 3.9C4.54667 3.35333 4.75333 2.80667 4.98 2.26C5.20667 1.71333 5.42667 1.2 5.64 0.719999H6.94ZM3.24 0.719999C3.12 1.22667 2.99333 1.77333 2.86 2.36C2.72667 2.94667 2.60667 3.52 2.5 4.08C2.39333 4.64 2.30667 5.15333 2.24 5.62H0.36L0.24 5.4C0.36 4.93333 0.513333 4.43333 0.7 3.9C0.886667 3.35333 1.08667 2.80667 1.3 2.26C1.52667 1.71333 1.74667 1.2 1.96 0.719999H3.24ZM12.2852 6.44531C13.0273 6.44531 13.6133 6.69271 14.043 7.1875C14.1081 7.33724 14.1406 7.47396 14.1406 7.59766C14.1406 7.83203 14.0788 8.03385 13.9551 8.20312C13.8314 8.3724 13.6719 8.45703 13.4766 8.45703C13.3008 8.45703 13.138 8.36263 12.9883 8.17383C12.8451 7.98503 12.666 7.79297 12.4512 7.59766C12.2363 7.40234 11.9531 7.30469 11.6016 7.30469C11.3281 7.30469 11.1133 7.39583 10.957 7.57812C10.8008 7.76042 10.7227 7.96875 10.7227 8.20312C10.7227 8.54167 10.8496 8.90299 11.1035 9.28711C11.3574 9.67122 11.6341 10.013 11.9336 10.3125C12.2331 10.612 12.5098 10.9766 12.7637 11.4062C13.0176 11.8359 13.1445 12.2721 13.1445 12.7148C13.1445 13.431 12.8841 14.0104 12.3633 14.4531C11.8424 14.8958 11.1719 15.1172 10.3516 15.1172C9.60938 15.1172 9.02344 14.8698 8.59375 14.375C8.52865 14.2708 8.49609 14.1471 8.49609 14.0039C8.49609 13.7695 8.55794 13.5612 8.68164 13.3789C8.80534 13.1966 8.96484 13.1055 9.16016 13.1055C9.33594 13.1055 9.4987 13.1999 9.64844 13.3887C9.79167 13.5775 9.9707 13.7695 10.1855 13.9648C10.4004 14.1602 10.6836 14.2578 11.0352 14.2578C11.3216 14.2578 11.5527 14.1634 11.7285 13.9746C11.9043 13.7858 11.9922 13.5807 11.9922 13.3594C11.9922 13.0208 11.8652 12.6595 11.6113 12.2754C11.3574 11.8913 11.0807 11.5495 10.7812 11.25C10.4818 10.9505 10.2051 10.5859 9.95117 10.1562C9.69727 9.72656 9.57031 9.29036 9.57031 8.84766C9.57031 8.48307 9.69076 8.11523 9.93164 7.74414C10.1725 7.37305 10.498 7.0638 10.9082 6.81641C11.3184 6.56901 11.7773 6.44531 12.2852 6.44531ZM20.293 6.50391C20.7747 6.50391 21.25 6.58854 21.7188 6.75781L20.5273 12.9297C20.4883 13.0859 20.4688 13.2487 20.4688 13.418C20.4688 13.7435 20.5339 13.9062 20.6641 13.9062C20.8268 13.9062 21.0221 13.7923 21.25 13.5645C21.4779 13.3301 21.6732 13.1315 21.8359 12.9688L21.9531 12.832C21.9792 12.832 22.028 12.8939 22.0996 13.0176C22.1712 13.1413 22.207 13.2292 22.207 13.2812C22.0964 13.4701 21.8945 13.7109 21.6016 14.0039C21.3151 14.2969 21.0026 14.5573 20.6641 14.7852C20.3255 15.0065 20.0195 15.1172 19.7461 15.1172C19.5378 15.1172 19.375 15.0228 19.2578 14.834C19.1406 14.6452 19.082 14.401 19.082 14.1016C19.082 13.8997 19.1276 13.5547 19.2188 13.0664L19.2871 12.7246C19.3066 12.6335 19.3164 12.5781 19.3164 12.5586C19.2122 12.7539 19.0625 12.9948 18.8672 13.2812C18.6719 13.5612 18.4473 13.8411 18.1934 14.1211C17.9395 14.401 17.6725 14.6354 17.3926 14.8242C17.1126 15.0065 16.8359 15.0977 16.5625 15.0977C15.9896 15.0977 15.5371 14.8405 15.2051 14.3262C14.873 13.8118 14.707 13.1901 14.707 12.4609C14.707 11.5299 14.9837 10.6022 15.5371 9.67773C15.9082 9.05273 16.3509 8.5026 16.8652 8.02734C17.3861 7.55208 17.9427 7.18099 18.5352 6.91406C19.1276 6.64062 19.7135 6.50391 20.293 6.50391ZM19.4727 7.40234C19.0885 7.40234 18.7012 7.53906 18.3105 7.8125C17.9199 8.07943 17.5618 8.44076 17.2363 8.89648C16.9108 9.3457 16.6471 9.84701 16.4453 10.4004C16.25 10.9473 16.1523 11.4974 16.1523 12.0508C16.1523 13.3268 16.4844 13.9648 17.1484 13.9648C17.3828 13.9648 17.6367 13.8346 17.9102 13.5742C18.1836 13.3138 18.4538 12.9688 18.7207 12.5391C18.9876 12.1094 19.222 11.6439 19.4238 11.1426C19.6322 10.6348 19.7852 10.1367 19.8828 9.64844L20.2734 7.65625C20.1172 7.48698 19.8503 7.40234 19.4727 7.40234ZM25.8203 6.50391C26.0286 6.50391 26.1914 6.59831 26.3086 6.78711C26.4258 6.97591 26.4844 7.22005 26.4844 7.51953C26.4844 7.78646 26.4453 8.13151 26.3672 8.55469L25.7812 11.543C25.6771 12.1484 25.625 12.5586 25.625 12.7734C25.625 13.138 25.6836 13.3984 25.8008 13.5547C25.918 13.7109 26.1263 13.7891 26.4258 13.7891C26.6667 13.7891 26.9336 13.6784 27.2266 13.457C27.5195 13.2357 27.8125 12.9427 28.1055 12.5781C28.3984 12.2135 28.6654 11.8164 28.9062 11.3867C29.1536 10.9505 29.3522 10.5208 29.502 10.0977C29.6517 9.67448 29.7266 9.29688 29.7266 8.96484C29.7266 8.69792 29.6322 8.40495 29.4434 8.08594C29.2546 7.76693 29.1602 7.53255 29.1602 7.38281C29.1602 7.14844 29.2383 6.94336 29.3945 6.76758C29.5508 6.5918 29.7396 6.50391 29.9609 6.50391C30.2148 6.50391 30.4232 6.55599 30.5859 6.66016C30.7682 6.9987 30.8594 7.3763 30.8594 7.79297C30.8594 8.8737 30.5436 9.99349 29.9121 11.1523C29.4954 11.9206 29.0299 12.5944 28.5156 13.1738C28.0078 13.7533 27.5033 14.2025 27.002 14.5215C26.5072 14.8405 26.0677 15 25.6836 15C25.2409 15 24.8893 14.8405 24.6289 14.5215C24.3685 14.2025 24.2383 13.7891 24.2383 13.2812C24.2383 12.9297 24.2643 12.6432 24.3164 12.4219L24.9805 8.98438C25.0586 8.71094 25.0977 8.45052 25.0977 8.20312C25.0977 7.8776 25.0326 7.71484 24.9023 7.71484C24.8242 7.71484 24.7201 7.76693 24.5898 7.87109C24.4596 7.97526 24.3294 8.09245 24.1992 8.22266C24.0755 8.34635 23.9844 8.44401 23.9258 8.51562L23.8281 8.63281C23.8021 8.63281 23.7533 8.57096 23.6816 8.44727C23.61 8.32357 23.5742 8.23568 23.5742 8.18359C23.6784 8.00781 23.8672 7.78971 24.1406 7.5293C24.4141 7.26237 24.707 7.02474 25.0195 6.81641C25.332 6.60807 25.599 6.50391 25.8203 6.50391ZM35.8594 6.50391C36.4583 6.50391 36.8913 6.6569 37.1582 6.96289C37.4251 7.26888 37.5586 7.60417 37.5586 7.96875C37.5586 8.54167 37.2656 9.10807 36.6797 9.66797C36.2891 10.0391 35.8691 10.3581 35.4199 10.625C34.9707 10.8854 34.5378 11.084 34.1211 11.2207C33.7044 11.3574 33.3529 11.4258 33.0664 11.4258C33.0143 11.4258 32.9883 11.6536 32.9883 12.1094C32.9883 12.6953 33.1022 13.1413 33.3301 13.4473C33.5579 13.7533 33.8672 13.9062 34.2578 13.9062C34.4206 13.9062 34.6159 13.8607 34.8438 13.7695C35.0716 13.6784 35.2474 13.5807 35.3711 13.4766C35.5013 13.3659 35.5729 13.3073 35.5859 13.3008C35.599 13.2943 35.625 13.2747 35.6641 13.2422C35.7031 13.2031 35.8203 13.0859 36.0156 12.8906L36.0742 12.832C36.1003 12.832 36.1491 12.8939 36.2207 13.0176C36.2923 13.1413 36.3281 13.2292 36.3281 13.2812C36.2109 13.4896 36.0026 13.7402 35.7031 14.0332C35.4102 14.3197 35.0781 14.5736 34.707 14.7949C34.3359 15.0098 33.9714 15.1172 33.6133 15.1172C32.9362 15.1172 32.4186 14.8535 32.0605 14.3262C31.7025 13.7988 31.5234 13.0729 31.5234 12.1484C31.5234 11.5234 31.6536 10.8822 31.9141 10.2246C32.1745 9.56055 32.5195 8.94857 32.9492 8.38867C33.3789 7.82878 33.8477 7.3763 34.3555 7.03125C34.8633 6.67969 35.3646 6.50391 35.8594 6.50391ZM35.6641 7.30469C35.3581 7.30469 35.0553 7.43164 34.7559 7.68555C34.4564 7.93945 34.1829 8.25195 33.9355 8.62305C33.6882 8.99414 33.4896 9.36849 33.3398 9.74609C33.1966 10.1172 33.125 10.4232 33.125 10.6641C33.125 10.7161 33.151 10.7422 33.2031 10.7422C33.4375 10.7422 33.7207 10.6576 34.0527 10.4883C34.3848 10.3125 34.7103 10.0846 35.0293 9.80469C35.3483 9.52474 35.6152 9.21875 35.8301 8.88672C36.0449 8.54818 36.1523 8.21615 36.1523 7.89062C36.1523 7.5 35.9896 7.30469 35.6641 7.30469ZM44.3555 6.79688H45.7227L46.1914 4.41406C46.2305 4.28385 46.5495 4.21875 47.1484 4.21875C47.2786 4.21875 47.3958 4.22526 47.5 4.23828L47.0117 6.79688H48.7891C48.8542 6.79688 48.8867 6.88151 48.8867 7.05078C48.8867 7.20052 48.8281 7.38932 48.7109 7.61719H46.8555L45.8203 12.9297C45.7812 13.0859 45.7617 13.2487 45.7617 13.418C45.7617 13.7435 45.8268 13.9062 45.957 13.9062C46.1198 13.9062 46.3151 13.7923 46.543 13.5645C46.7708 13.3301 46.9661 13.1315 47.1289 12.9688L47.2461 12.832C47.2721 12.832 47.321 12.8939 47.3926 13.0176C47.4642 13.1413 47.5 13.2292 47.5 13.2812C47.3893 13.4701 47.1875 13.7109 46.8945 14.0039C46.6081 14.2969 46.2956 14.5573 45.957 14.7852C45.6185 15.0065 45.3125 15.1172 45.0391 15.1172C44.8307 15.1172 44.668 15.0228 44.5508 14.834C44.4336 14.6452 44.375 14.401 44.375 14.1016C44.375 13.9062 44.4206 13.5612 44.5117 13.0664L45.5664 7.61719H44.1797C44.1406 7.61719 44.1211 7.54557 44.1211 7.40234C44.1211 7.23307 44.1992 7.03125 44.3555 6.79688ZM54.9219 6.50391C55.5729 6.50391 55.8984 6.93359 55.8984 7.79297C55.8984 8.39844 55.8073 9.10807 55.625 9.92188L54.9805 12.9297C54.9414 13.0859 54.9219 13.2487 54.9219 13.418C54.9219 13.7435 54.987 13.9062 55.1172 13.9062C55.2799 13.9062 55.4753 13.7923 55.7031 13.5645C55.931 13.3301 56.1263 13.1315 56.2891 12.9688L56.4062 12.832C56.4323 12.832 56.4811 12.8939 56.5527 13.0176C56.6243 13.1413 56.6602 13.2292 56.6602 13.2812C56.5495 13.4701 56.3477 13.7109 56.0547 14.0039C55.7682 14.2969 55.4557 14.5573 55.1172 14.7852C54.7786 15.0065 54.4727 15.1172 54.1992 15.1172C53.9909 15.1172 53.8281 15.0228 53.7109 14.834C53.5938 14.6452 53.5352 14.401 53.5352 14.1016C53.5352 13.9062 53.5807 13.5612 53.6719 13.0664L54.3555 9.84375C54.4466 9.40104 54.4922 9.04948 54.4922 8.78906C54.4922 8.22917 54.3685 7.94922 54.1211 7.94922C53.9062 7.94922 53.6165 8.11198 53.252 8.4375C52.8874 8.75651 52.5065 9.18294 52.1094 9.7168C51.7188 10.2507 51.3639 10.8464 51.0449 11.5039C50.7259 12.1549 50.5013 12.8125 50.3711 13.4766L50.0391 15C49.8633 15.0521 49.6615 15.0781 49.4336 15.0781C49.2122 15.0781 48.9909 15.0521 48.7695 15L50.8789 4.08203C50.9961 3.5026 51.0547 3.15755 51.0547 3.04688C51.0547 2.79948 50.6576 2.67578 49.8633 2.67578C49.8242 2.67578 49.8047 2.63672 49.8047 2.55859C49.8047 2.40234 49.8568 2.27214 49.9609 2.16797C50.8073 2.08984 51.6276 1.90755 52.4219 1.62109C52.5 1.66016 52.5391 1.78385 52.5391 1.99219C52.5391 2.08333 52.4544 2.57161 52.2852 3.45703L50.9375 10.3516C51.0612 10.1302 51.3444 9.72656 51.7871 9.14062C52.0801 8.75651 52.4186 8.36263 52.8027 7.95898C53.1934 7.54883 53.5775 7.20378 53.9551 6.92383C54.3392 6.64388 54.6615 6.50391 54.9219 6.50391ZM62.1875 6.50391C62.7865 6.50391 63.2194 6.6569 63.4863 6.96289C63.7533 7.26888 63.8867 7.60417 63.8867 7.96875C63.8867 8.54167 63.5938 9.10807 63.0078 9.66797C62.6172 10.0391 62.1973 10.3581 61.748 10.625C61.2988 10.8854 60.8659 11.084 60.4492 11.2207C60.0326 11.3574 59.681 11.4258 59.3945 11.4258C59.3424 11.4258 59.3164 11.6536 59.3164 12.1094C59.3164 12.6953 59.4303 13.1413 59.6582 13.4473C59.8861 13.7533 60.1953 13.9062 60.5859 13.9062C60.7487 13.9062 60.944 13.8607 61.1719 13.7695C61.3997 13.6784 61.5755 13.5807 61.6992 13.4766C61.8294 13.3659 61.901 13.3073 61.9141 13.3008C61.9271 13.2943 61.9531 13.2747 61.9922 13.2422C62.0312 13.2031 62.1484 13.0859 62.3438 12.8906L62.4023 12.832C62.4284 12.832 62.4772 12.8939 62.5488 13.0176C62.6204 13.1413 62.6562 13.2292 62.6562 13.2812C62.5391 13.4896 62.3307 13.7402 62.0312 14.0332C61.7383 14.3197 61.4062 14.5736 61.0352 14.7949C60.6641 15.0098 60.2995 15.1172 59.9414 15.1172C59.2643 15.1172 58.7467 14.8535 58.3887 14.3262C58.0306 13.7988 57.8516 13.0729 57.8516 12.1484C57.8516 11.5234 57.9818 10.8822 58.2422 10.2246C58.5026 9.56055 58.8477 8.94857 59.2773 8.38867C59.707 7.82878 60.1758 7.3763 60.6836 7.03125C61.1914 6.67969 61.6927 6.50391 62.1875 6.50391ZM61.9922 7.30469C61.6862 7.30469 61.3835 7.43164 61.084 7.68555C60.7845 7.93945 60.5111 8.25195 60.2637 8.62305C60.0163 8.99414 59.8177 9.36849 59.668 9.74609C59.5247 10.1172 59.4531 10.4232 59.4531 10.6641C59.4531 10.7161 59.4792 10.7422 59.5312 10.7422C59.7656 10.7422 60.0488 10.6576 60.3809 10.4883C60.7129 10.3125 61.0384 10.0846 61.3574 9.80469C61.6764 9.52474 61.9434 9.21875 62.1582 8.88672C62.373 8.54818 62.4805 8.21615 62.4805 7.89062C62.4805 7.5 62.3177 7.30469 61.9922 7.30469ZM78.0664 1.99219L77.7734 3.45703L75.9375 12.9297C75.8984 13.0859 75.8789 13.2487 75.8789 13.418C75.8789 13.7435 75.944 13.9062 76.0742 13.9062C76.237 13.9062 76.4323 13.7923 76.6602 13.5645C76.888 13.3301 77.0833 13.1315 77.2461 12.9688L77.3633 12.832C77.3893 12.832 77.4382 12.8939 77.5098 13.0176C77.5814 13.1413 77.6172 13.2292 77.6172 13.2812C77.5065 13.4701 77.3047 13.7109 77.0117 14.0039C76.7253 14.2969 76.4128 14.5573 76.0742 14.7852C75.7357 15.0065 75.4297 15.1172 75.1562 15.1172C74.9479 15.1172 74.7852 15.0228 74.668 14.834C74.5508 14.6452 74.4922 14.401 74.4922 14.1016C74.4922 13.9062 74.5378 13.5612 74.6289 13.0664C74.6419 13.0013 74.6647 12.9036 74.6973 12.7734C74.7298 12.6432 74.7461 12.5651 74.7461 12.5391C74.6615 12.6888 74.5671 12.8418 74.4629 12.998C74.3652 13.1543 74.2611 13.3138 74.1504 13.4766C74.0007 13.6979 73.7988 13.9355 73.5449 14.1895C73.2975 14.4368 73.0339 14.6517 72.7539 14.834C72.4805 15.0098 72.2266 15.0977 71.9922 15.0977C71.3932 15.0977 70.931 14.8405 70.6055 14.3262C70.2799 13.8118 70.1172 13.1901 70.1172 12.4609C70.1172 11.7578 70.2799 11.0547 70.6055 10.3516C70.9375 9.64844 71.3737 9.00716 71.9141 8.42773C72.4544 7.84831 73.0501 7.38281 73.7012 7.03125C74.3587 6.67969 75.013 6.50391 75.6641 6.50391H75.918L76.4648 3.59375C76.5039 3.40495 76.5234 3.22266 76.5234 3.04688C76.5234 2.79948 76.1263 2.67578 75.332 2.67578C75.293 2.67578 75.2734 2.63672 75.2734 2.55859C75.2734 2.40234 75.3255 2.27214 75.4297 2.16797C76.3151 2.08984 77.1549 1.90755 77.9492 1.62109C78.0273 1.66667 78.0664 1.79036 78.0664 1.99219ZM75.293 9.60938L75.5273 8.33984C75.5794 8.09245 75.5534 7.87435 75.4492 7.68555C75.3451 7.49674 75.1693 7.40234 74.9219 7.40234C74.5247 7.40234 74.1276 7.53906 73.7305 7.8125C73.3333 8.08594 72.972 8.45052 72.6465 8.90625C72.321 9.35547 72.0573 9.85677 71.8555 10.4102C71.6602 10.957 71.5625 11.5104 71.5625 12.0703C71.5625 13.3333 71.8945 13.9648 72.5586 13.9648C72.7995 13.9648 73.0566 13.8346 73.3301 13.5742C73.61 13.3073 73.8802 12.959 74.1406 12.5293C74.401 12.0996 74.6322 11.6309 74.834 11.123C75.0423 10.6087 75.1953 10.1042 75.293 9.60938ZM84.5898 6.50391C85.0716 6.50391 85.5469 6.58854 86.0156 6.75781L84.8242 12.9297C84.7852 13.0859 84.7656 13.2487 84.7656 13.418C84.7656 13.7435 84.8307 13.9062 84.9609 13.9062C85.1237 13.9062 85.319 13.7923 85.5469 13.5645C85.7747 13.3301 85.9701 13.1315 86.1328 12.9688L86.25 12.832C86.276 12.832 86.3249 12.8939 86.3965 13.0176C86.4681 13.1413 86.5039 13.2292 86.5039 13.2812C86.3932 13.4701 86.1914 13.7109 85.8984 14.0039C85.612 14.2969 85.2995 14.5573 84.9609 14.7852C84.6224 15.0065 84.3164 15.1172 84.043 15.1172C83.8346 15.1172 83.6719 15.0228 83.5547 14.834C83.4375 14.6452 83.3789 14.401 83.3789 14.1016C83.3789 13.8997 83.4245 13.5547 83.5156 13.0664L83.584 12.7246C83.6035 12.6335 83.6133 12.5781 83.6133 12.5586C83.5091 12.7539 83.3594 12.9948 83.1641 13.2812C82.9688 13.5612 82.7441 13.8411 82.4902 14.1211C82.2363 14.401 81.9694 14.6354 81.6895 14.8242C81.4095 15.0065 81.1328 15.0977 80.8594 15.0977C80.2865 15.0977 79.834 14.8405 79.502 14.3262C79.1699 13.8118 79.0039 13.1901 79.0039 12.4609C79.0039 11.5299 79.2806 10.6022 79.834 9.67773C80.2051 9.05273 80.6478 8.5026 81.1621 8.02734C81.6829 7.55208 82.2396 7.18099 82.832 6.91406C83.4245 6.64062 84.0104 6.50391 84.5898 6.50391ZM83.7695 7.40234C83.3854 7.40234 82.998 7.53906 82.6074 7.8125C82.2168 8.07943 81.8587 8.44076 81.5332 8.89648C81.2077 9.3457 80.944 9.84701 80.7422 10.4004C80.5469 10.9473 80.4492 11.4974 80.4492 12.0508C80.4492 13.3268 80.7812 13.9648 81.4453 13.9648C81.6797 13.9648 81.9336 13.8346 82.207 13.5742C82.4805 13.3138 82.7507 12.9688 83.0176 12.5391C83.2845 12.1094 83.5189 11.6439 83.7207 11.1426C83.929 10.6348 84.082 10.1367 84.1797 9.64844L84.5703 7.65625C84.4141 7.48698 84.1471 7.40234 83.7695 7.40234ZM88.3203 6.79688H89.6875L90.1562 4.41406C90.1953 4.28385 90.5143 4.21875 91.1133 4.21875C91.2435 4.21875 91.3607 4.22526 91.4648 4.23828L90.9766 6.79688H92.7539C92.819 6.79688 92.8516 6.88151 92.8516 7.05078C92.8516 7.20052 92.793 7.38932 92.6758 7.61719H90.8203L89.7852 12.9297C89.7461 13.0859 89.7266 13.2487 89.7266 13.418C89.7266 13.7435 89.7917 13.9062 89.9219 13.9062C90.0846 13.9062 90.2799 13.7923 90.5078 13.5645C90.7357 13.3301 90.931 13.1315 91.0938 12.9688L91.2109 12.832C91.237 12.832 91.2858 12.8939 91.3574 13.0176C91.429 13.1413 91.4648 13.2292 91.4648 13.2812C91.3542 13.4701 91.1523 13.7109 90.8594 14.0039C90.5729 14.2969 90.2604 14.5573 89.9219 14.7852C89.5833 15.0065 89.2773 15.1172 89.0039 15.1172C88.7956 15.1172 88.6328 15.0228 88.5156 14.834C88.3984 14.6452 88.3398 14.401 88.3398 14.1016C88.3398 13.9062 88.3854 13.5612 88.4766 13.0664L89.5312 7.61719H88.1445C88.1055 7.61719 88.0859 7.54557 88.0859 7.40234C88.0859 7.23307 88.1641 7.03125 88.3203 6.79688ZM97.1484 6.50391C97.7474 6.50391 98.1803 6.6569 98.4473 6.96289C98.7142 7.26888 98.8477 7.60417 98.8477 7.96875C98.8477 8.54167 98.5547 9.10807 97.9688 9.66797C97.5781 10.0391 97.1582 10.3581 96.709 10.625C96.2598 10.8854 95.8268 11.084 95.4102 11.2207C94.9935 11.3574 94.6419 11.4258 94.3555 11.4258C94.3034 11.4258 94.2773 11.6536 94.2773 12.1094C94.2773 12.6953 94.3913 13.1413 94.6191 13.4473C94.847 13.7533 95.1562 13.9062 95.5469 13.9062C95.7096 13.9062 95.9049 13.8607 96.1328 13.7695C96.3607 13.6784 96.5365 13.5807 96.6602 13.4766C96.7904 13.3659 96.862 13.3073 96.875 13.3008C96.888 13.2943 96.9141 13.2747 96.9531 13.2422C96.9922 13.2031 97.1094 13.0859 97.3047 12.8906L97.3633 12.832C97.3893 12.832 97.4382 12.8939 97.5098 13.0176C97.5814 13.1413 97.6172 13.2292 97.6172 13.2812C97.5 13.4896 97.2917 13.7402 96.9922 14.0332C96.6992 14.3197 96.3672 14.5736 95.9961 14.7949C95.625 15.0098 95.2604 15.1172 94.9023 15.1172C94.2253 15.1172 93.7077 14.8535 93.3496 14.3262C92.9915 13.7988 92.8125 13.0729 92.8125 12.1484C92.8125 11.5234 92.9427 10.8822 93.2031 10.2246C93.4635 9.56055 93.8086 8.94857 94.2383 8.38867C94.668 7.82878 95.1367 7.3763 95.6445 7.03125C96.1523 6.67969 96.6536 6.50391 97.1484 6.50391ZM96.9531 7.30469C96.6471 7.30469 96.3444 7.43164 96.0449 7.68555C95.7454 7.93945 95.472 8.25195 95.2246 8.62305C94.9772 8.99414 94.7786 9.36849 94.6289 9.74609C94.4857 10.1172 94.4141 10.4232 94.4141 10.6641C94.4141 10.7161 94.4401 10.7422 94.4922 10.7422C94.7266 10.7422 95.0098 10.6576 95.3418 10.4883C95.6738 10.3125 95.9993 10.0846 96.3184 9.80469C96.6374 9.52474 96.9043 9.21875 97.1191 8.88672C97.334 8.54818 97.4414 8.21615 97.4414 7.89062C97.4414 7.5 97.2786 7.30469 96.9531 7.30469ZM105.397 0.94C105.277 1.40667 105.124 1.91333 104.937 2.46C104.75 3.00667 104.544 3.55333 104.317 4.1C104.104 4.63333 103.89 5.14 103.677 5.62H102.357C102.49 5.11333 102.617 4.57333 102.737 4C102.87 3.41333 102.99 2.84 103.097 2.28C103.217 1.70667 103.31 1.18667 103.377 0.719999H105.257L105.397 0.94ZM101.697 0.94C101.577 1.40667 101.424 1.91333 101.237 2.46C101.05 3.00667 100.844 3.55333 100.617 4.1C100.404 4.63333 100.19 5.14 99.977 5.62H98.697C98.7904 5.24667 98.8837 4.84667 98.977 4.42C99.0704 3.99333 99.157 3.56667 99.237 3.14C99.3304 2.7 99.4104 2.27333 99.477 1.86C99.557 1.44667 99.6237 1.06667 99.677 0.719999H101.557L101.697 0.94Z" fill="#8E8E8E"/>
</svg>
