<svg width="289" height="93" viewBox="0 0 289 93" fill="none" xmlns="http://www.w3.org/2000/svg">
<path d="M3.27582 70.5206C2.08408 70.0428 1.39835 69.2877 1.21863 68.255C1.06235 67.2226 0.987215 66.3079 0.993225 65.5111C0.99835 64.8314 1.02497 64.4097 1.07308 64.246C1.28514 60.9897 1.66109 57.7581 2.20091 54.5511C3.58107 45.5847 5.5111 36.7396 7.99103 28.0159C9.45708 23.1987 10.976 19.1436 12.5477 15.8507C13.1434 14.5661 13.6185 13.7259 13.973 13.3301C14.3755 12.7941 14.8697 12.5283 15.4557 12.5327C15.6666 12.5343 15.8654 12.5826 16.0522 12.6778C16.7997 13.0116 17.1704 13.5886 17.1642 14.4089C17.1607 14.8776 16.9229 15.3329 16.4508 15.7746C15.0586 17.0064 13.7312 18.9769 12.4686 21.6862C11.8257 23.0173 11.0738 24.8164 10.213 27.0834C7.55527 34.5167 5.60922 42.3772 4.37481 50.665C4.12665 52.4913 3.95217 53.8729 3.85135 54.8096C3.51521 58.9791 3.33954 62.0716 3.32434 64.0872C3.30861 66.1731 3.5234 67.2177 3.9687 67.221C4.55462 67.2255 6.23843 64.6131 9.02013 59.3839L17.8619 43.1025L22.3903 34.6989C22.984 33.6721 23.5543 32.6334 24.1013 31.5828C25.6473 28.5944 26.7148 26.9031 27.3037 26.5091C27.7511 26.2313 28.1858 26.0939 28.6076 26.0971C28.7717 26.0983 28.924 26.1112 29.0644 26.1357C29.8353 26.4696 30.301 26.8833 30.4613 27.3767C30.6219 27.8467 30.7 28.3629 30.6957 28.9254L30.6926 29.3473C30.7151 29.4646 30.7259 29.5936 30.7248 29.7342C30.7181 30.6248 30.688 31.5036 30.6346 32.3704C30.5814 33.2137 30.5399 34.0455 30.5103 34.8656C30.5103 37.9829 30.7585 40.809 31.255 43.3441C31.8856 46.7474 33.106 49.6395 34.9162 52.0204C36.4244 54.0475 38.2072 55.4086 40.2645 56.1038L40.9655 56.3904C41.1997 56.4156 41.4454 56.4643 41.7027 56.5365C42.2174 56.6576 42.7443 56.7202 43.2833 56.7243C47.4082 56.7554 51.2687 54.5578 54.8646 50.1317C56.2605 48.4078 57.4328 46.7994 58.3816 45.3065C62.7724 38.0504 65.5864 30.0909 66.8236 21.4281C67.0244 19.6718 67.1315 17.903 67.1449 16.1218C67.1649 13.4734 66.7128 11.2551 65.7888 9.46684C65.4887 8.85519 65.3396 8.42046 65.3416 8.16265C65.3437 7.88141 65.4392 7.64775 65.6281 7.46167C65.9117 7.15911 66.2527 7.00934 66.6511 7.01234C67.1198 7.01587 67.4926 7.31166 67.7694 7.89971C68.2735 9.42699 68.5482 10.308 68.5933 10.5427C68.8408 11.904 68.9595 13.2643 68.9492 14.6236C68.9368 16.2642 68.6971 18.5359 68.2298 21.4387C68.2284 21.6262 68.1066 22.2347 67.8645 23.2641C66.447 30.9646 63.6825 38.5729 59.571 46.089C59.0249 47.0224 58.4673 47.9323 57.8981 48.8186C57.59 49.2616 57.2936 49.7164 57.0088 50.183C55.8012 51.8146 54.8191 53.0611 54.0626 53.9226C53.4243 54.6444 52.5866 55.3998 51.5493 56.1889C49.0028 58.2088 46.1241 59.2067 42.9132 59.1825C42.3508 59.1782 41.6719 59.0676 40.8766 58.8507L39.9642 58.6329L38.8429 58.1322C38.1419 57.8457 37.5347 57.5598 37.0212 57.2747C36.5313 56.9663 35.9141 56.4577 35.1694 55.749C32.4462 53.2206 30.5284 49.5615 29.4161 44.7717C28.7213 40.5476 28.3731 36.9941 28.3714 34.1112C28.3204 31.556 28.1425 30.2773 27.8378 30.275C27.6035 30.2732 26.5141 31.7651 24.5696 34.7505L24.0005 35.6251C23.7399 35.9982 22.9095 37.3279 21.5094 39.6143C18.3772 44.7002 14.9412 51.2252 11.2013 59.1894C11.1772 59.283 11.1175 59.4349 11.0221 59.6451C10.5941 60.4622 9.61787 62.4823 8.09352 65.7052C7.33206 67.223 6.66734 68.343 6.09938 69.0653C5.34198 70.044 4.40079 70.5291 3.27582 70.5206ZM74.4529 54.0413C72.3905 54.0257 70.9177 53.5107 70.0347 52.4962C69.5713 51.7895 69.3425 51.0495 69.3483 50.2761C69.3515 49.8542 69.4251 49.4212 69.5691 48.9769C69.9769 47.7378 70.5125 46.6402 71.176 45.6843L71.531 45.2299C73.5894 42.6672 75.568 41.3696 77.4668 41.3371C78.474 41.415 79.2679 41.8194 79.8483 42.5504C80.1028 42.9976 80.2282 43.4556 80.2247 43.9243C80.2217 44.3228 80.1248 44.7322 79.9342 45.1527C79.4346 46.1333 78.8306 46.9725 78.1221 47.6703C76.7053 49.0659 74.9535 49.8262 72.8665 49.9511C72.0942 49.8046 71.6508 49.5434 71.5364 49.1676C71.4221 48.7917 71.3656 48.51 71.367 48.3225C71.3699 47.9475 71.478 47.5968 71.6914 47.2702C71.9758 46.8505 72.4461 46.6431 73.1024 46.6481L73.3836 46.6502C73.9697 46.6312 74.4507 46.5645 74.8266 46.4501C75.2259 46.3359 75.5433 46.1977 75.7789 46.0354C76.0145 45.8731 76.1916 45.7104 76.31 45.5472C76.4286 45.3606 76.5001 45.1971 76.5246 45.0566C76.5727 44.8929 76.5971 44.7642 76.5978 44.6705L76.5638 44.5296C76.1881 44.6205 75.7292 44.8631 75.1871 45.2575C74.6685 45.652 74.1962 46.1289 73.7701 46.6882L73.2025 47.352C72.5382 48.4251 72.2022 49.4656 72.1946 50.4733C72.1886 51.2702 72.6536 51.7659 73.5897 51.9605C73.9407 52.0334 74.245 52.0826 74.5026 52.108C74.6198 52.1089 74.7018 52.1212 74.7485 52.145L75.4518 52.1151C77.3268 52.1293 79.2987 51.7106 81.3677 50.8589C83.8832 49.8466 86.4367 48.4596 89.0282 46.6978C89.2164 46.6055 89.3926 46.56 89.5566 46.5612C89.955 46.5642 90.1526 46.7884 90.1492 47.2337C90.1473 47.4915 89.9933 47.713 89.6872 47.8982C88.7685 48.5006 87.7206 49.149 86.5435 49.8433C83.5067 51.6017 80.2975 52.9134 76.9159 53.7786C76.0942 53.9599 75.2732 54.0474 74.4529 54.0413ZM97.3008 68.5929C96.3165 68.5855 95.7576 68.1008 95.6243 67.1388C95.7378 64.5146 96.0153 61.9033 96.4568 59.305C97.0782 54.5986 97.6327 51.005 98.1202 48.5243C101.167 33.0077 105.082 18.8689 109.866 6.10774L110.045 5.72236C111.214 3.01234 111.963 1.6117 112.291 1.52043L113.593 1.45993C114.436 1.46629 114.963 1.63432 115.171 1.96403C115.263 2.17567 115.308 2.42211 115.306 2.70335L115.306 2.73851C115.3 3.44161 114.366 6.10652 112.503 10.7332C111.668 12.7426 110.855 14.7873 110.066 16.8674C103.244 35.7071 97.4995 48.4727 92.8317 55.1643L92.4769 55.5835C91.3417 56.9343 90.2937 57.6061 89.3327 57.5989C88.8171 57.595 88.3376 57.4742 87.894 57.2365C87.2408 56.8331 86.9174 56.2095 86.9237 55.3658C86.9282 54.7799 86.991 54.2179 87.1122 53.6797C87.136 53.633 87.1482 53.5745 87.1487 53.5042C88.2773 49.9266 89.9201 46.5405 92.077 43.3457C92.7879 42.3198 93.5804 41.3531 94.4544 40.4456C95.3521 39.5149 96.4587 38.8552 97.7741 38.4667C99.1569 38.4771 99.8441 39.0448 99.8356 40.1698C99.8287 41.0838 99.2503 41.6303 98.1005 41.8091C97.0203 42.0822 95.7586 43.1157 94.3153 44.9095C92.422 47.3328 91.066 49.9828 90.2474 52.8596C90.1752 53.1168 90.1382 53.3509 90.1367 53.5619C90.1359 53.6556 90.1707 53.7028 90.2411 53.7033C90.3348 53.704 90.4997 53.588 90.7359 53.3554C92.8393 51.0509 94.6276 48.5682 96.1008 45.9074C100.521 37.9014 104.674 27.9481 108.561 16.0474C108.922 14.7376 109.319 13.4515 109.75 12.1891C110.803 9.33755 111.587 6.29651 112.104 3.06593L112.142 2.64434C112.095 2.64398 112.001 2.79561 111.858 3.09923L111.857 3.23985C112.253 3.5241 112.697 3.73839 113.188 3.88272C113.538 4.00256 113.877 4.14574 114.204 4.31227C114.227 4.31245 114.239 4.32426 114.239 4.3477C114.215 4.39439 114.18 4.42928 114.133 4.45237C114.109 4.45219 114.086 4.46373 114.062 4.48699L113.849 4.8018C113.329 5.40727 112.784 6.20005 112.214 7.18016C109.124 12.782 106.221 20.1314 103.504 29.2284C100.089 40.7576 98.3446 51.3971 98.2711 61.1469C98.2534 63.4905 98.4148 65.402 98.7552 66.8811C98.7473 67.9358 98.2625 68.5064 97.3008 68.5929ZM114.878 68.7254C113.894 68.718 113.335 68.2333 113.202 67.2714C113.315 64.6471 113.593 62.0359 114.034 59.4376C114.656 54.7312 115.21 51.1376 115.698 48.6568C118.745 33.1403 122.66 19.0015 127.444 6.2403L127.622 5.85492C128.791 3.1449 129.54 1.74426 129.869 1.65299L131.17 1.59249C132.014 1.59885 132.54 1.76688 132.749 2.09659C132.841 2.30823 132.886 2.55467 132.884 2.83591L132.883 2.87107C132.878 3.57417 131.944 6.23908 130.081 10.8658C129.245 12.8752 128.433 14.9199 127.644 16.9999C120.822 35.8396 115.077 48.6053 110.409 55.2968L110.055 55.716C108.919 57.0669 107.871 57.7387 106.91 57.7314C106.395 57.7276 105.915 57.6068 105.472 57.369C104.818 56.9656 104.495 56.3421 104.501 55.4984C104.506 54.9125 104.569 54.3504 104.69 53.8122C104.714 53.7656 104.726 53.707 104.726 53.6367C105.855 50.0592 107.498 46.6731 109.655 43.4783C110.366 42.4524 111.158 41.4857 112.032 40.5782C112.93 39.6474 114.036 38.9878 115.352 38.5992C116.735 38.6097 117.422 39.1774 117.413 40.3023C117.406 41.2164 116.828 41.7628 115.678 41.9416C114.598 42.2148 113.336 43.2482 111.893 45.0421C110 47.4654 108.644 50.1154 107.825 52.9921C107.753 53.2494 107.716 53.4835 107.714 53.6944C107.714 53.7882 107.748 53.8353 107.819 53.8358C107.912 53.8365 108.077 53.7206 108.314 53.488C110.417 51.1835 112.205 48.7008 113.678 46.04C118.098 38.034 122.252 28.0807 126.138 16.18C126.5 14.8701 126.896 13.584 127.328 12.3216C128.38 9.47011 129.165 6.42907 129.682 3.19849L129.72 2.7769C129.673 2.77654 129.578 2.92817 129.435 3.23179L129.434 3.37241C129.831 3.65666 130.274 3.87095 130.765 4.01528C131.116 4.13512 131.455 4.2783 131.782 4.44483C131.805 4.44501 131.817 4.45682 131.817 4.48026C131.793 4.52695 131.757 4.56184 131.71 4.58493C131.687 4.58475 131.663 4.59629 131.64 4.61955L131.426 4.93436C130.906 5.53983 130.361 6.33261 129.791 7.31272C126.702 12.9146 123.799 20.264 121.082 29.3609C117.667 40.8902 115.922 51.5297 115.849 61.2794C115.831 63.6231 115.992 65.5345 116.333 67.0137C116.325 68.0684 115.84 68.6389 114.878 68.7254ZM123.763 60.7063C123.412 60.7036 123.049 60.6306 122.675 60.4871C122.023 59.8963 121.7 59.2141 121.706 58.4407C121.71 57.9251 121.882 56.9537 122.22 55.5265L122.328 55.2109C122.812 53.2223 123.343 51.2224 123.92 49.211C124.932 45.5858 125.574 42.8249 125.846 40.9285C125.847 40.8347 125.836 40.7526 125.813 40.6821C125.82 39.7915 126.035 39.254 126.458 39.0697C126.881 38.862 127.234 38.7592 127.515 38.7613C128.57 38.7692 129.128 39.3711 129.189 40.5669L128.972 41.3739C128.851 41.9121 128.623 42.5783 128.289 43.3727C127.642 45.2429 126.982 47.3122 126.308 49.5806C126.236 49.9082 126.067 50.4812 125.803 51.2995C125.324 52.7022 124.95 54.1291 124.681 55.5802C124.56 56.0715 124.499 56.4461 124.497 56.7039C124.494 57.0554 124.622 57.2322 124.879 57.2341C125.419 57.121 126.564 56.0515 128.314 54.0256C128.456 53.8391 128.586 53.6995 128.704 53.6066C132.133 49.5074 135.516 45.3726 138.852 41.2023C139.586 40.2703 140.45 39.1987 141.443 37.9874L142.259 36.974C143.182 35.8794 143.983 35.3346 144.662 35.3397C145.131 35.3433 145.598 35.6398 146.062 36.2292C146.155 36.3705 146.2 36.5467 146.199 36.7576C146.196 37.156 146.016 37.7055 145.659 38.4059L145.551 38.6864C145.049 39.9717 144.524 41.2217 143.976 42.4363C141.95 46.8743 140.442 51.0583 139.452 54.9885C139.449 55.3869 139.423 55.6094 139.376 55.6559L139.341 55.6908C139.224 55.6899 138.991 55.4655 138.643 55.0175C138.295 54.5462 138.085 54.3102 138.015 54.3097C137.968 54.3093 137.933 54.3208 137.909 54.344C137.839 54.3435 137.804 54.3315 137.804 54.3081C137.993 54.0986 138.182 53.9359 138.37 53.8201C138.842 53.4253 139.279 53.0184 139.68 52.5995C140.011 52.2739 140.188 52.0877 140.212 52.041C142.905 49.2253 145.019 47.1435 146.552 45.7957C148.322 44.2855 149.769 43.5347 150.894 43.5432C151.456 43.5474 151.947 43.7269 152.366 44.0817C152.668 44.4589 152.957 45.0471 153.232 45.8461C154.012 48.0083 154.986 49.4805 156.152 50.2627C156.479 50.4293 157.005 50.5153 157.732 50.5207L158.189 50.489C159.738 50.2429 161.207 49.6797 162.597 48.7996C163.091 48.522 163.585 48.2679 164.079 48.0373L166.199 46.6821C166.481 46.5436 166.739 46.4753 166.974 46.477C167.091 46.4779 167.219 46.5141 167.359 46.5854C167.663 46.7283 167.814 46.8936 167.813 47.081L167.81 47.3974C167.808 47.749 167.606 48.0639 167.206 48.3421L164.91 49.7663C163.309 50.6683 161.886 51.349 160.64 51.8083C159.418 52.2679 158.315 52.4939 157.33 52.4865C155.432 52.4722 153.984 51.723 152.988 50.2389C152.315 49.2494 151.761 48.1905 151.324 47.0622C151.117 46.5918 150.908 46.3559 150.697 46.3543C150.228 46.3508 149.369 46.813 148.12 47.7411C145.904 49.3885 143.731 51.6222 141.6 54.4422C141.363 54.7685 141.103 55.083 140.82 55.3855L140.642 55.6655C139.671 56.9941 138.916 57.6564 138.377 57.6523C137.136 57.4789 136.482 57.2044 136.414 56.8289C136.347 56.4534 136.314 56.1836 136.315 56.0195C136.318 55.5274 136.44 55.0009 136.678 54.4402L136.75 54.1947C137.373 52.4415 138.042 50.7004 138.759 48.9714C140.145 45.3489 141.006 43.0702 141.341 42.1352C142.06 40.1249 142.492 38.7219 142.639 37.9261L142.711 37.6454L142.786 37.0483L142.821 37.0837C143.427 37.5336 143.953 37.7602 144.398 37.7636C144.585 37.765 144.714 37.7542 144.785 37.7313L144.82 37.7316L144.183 38.2542C143.027 39.2767 141.929 40.3349 140.89 41.4286C137.037 45.6653 133.359 50.1494 129.854 54.881L127.476 57.8865C127.335 58.0261 127.216 58.1658 127.121 58.3058C125.937 59.9141 124.818 60.7142 123.763 60.7063ZM129.13 34.3437C128.427 34.3384 127.903 33.936 127.557 33.1365C127.468 32.5967 127.424 32.1979 127.426 31.9401C127.428 31.6823 127.477 31.3897 127.573 31.0623C127.883 30.338 128.202 29.9537 128.531 29.9093C128.859 29.8649 129.059 29.843 129.129 29.8435C129.645 29.8474 130.077 30.0265 130.426 30.3807C130.728 30.6642 130.878 31.0286 130.875 31.4739C130.872 31.7786 130.824 32.0361 130.728 32.2463C130.728 32.2931 130.727 32.3635 130.727 32.4572L130.728 32.3166L130.765 32.0356C130.833 32.2939 130.867 32.5403 130.865 32.7747C130.862 33.1965 130.718 33.547 130.435 33.8261C130.081 34.175 129.646 34.3475 129.13 34.3437ZM160.198 91.814C159.471 91.8085 158.864 91.5578 158.375 91.0619C157.957 90.5431 157.739 90.0141 157.719 89.4749C157.7 88.9357 157.691 88.5254 157.693 88.2442C157.706 86.627 158.083 84.7783 158.825 82.6979C161.675 74.6332 166.044 67.1659 171.932 60.2961C174.557 57.1752 177.319 54.5475 180.218 52.413C183.117 50.2786 185.696 48.7042 187.953 47.69C188.118 47.5975 188.271 47.5517 188.411 47.5528L188.622 47.5895C188.832 47.7318 188.936 47.9552 188.933 48.2599C188.932 48.4474 188.86 48.6226 188.718 48.7856C187.262 49.1731 184.814 50.5492 181.375 52.914C177.958 55.2554 174.962 57.8345 172.386 60.6511C167.894 65.8439 164.475 71.6425 162.13 78.0469L161.661 79.5551C160.796 82.4784 160.356 84.8189 160.343 86.5766L160.337 87.3852C160.332 88.0414 160.47 88.3706 160.751 88.3727C160.986 88.3745 161.303 88.1777 161.705 87.7822C163.476 85.9674 165.038 83.987 166.39 81.8408L168.205 78.9365C171.6 73.2432 174.352 67.2403 176.462 60.9279C178.242 54.988 179.143 50.4713 179.166 47.3776L179.171 46.7097C179.178 45.8659 179.005 45.4427 178.654 45.4401C177.995 45.7867 177.359 46.2155 176.745 46.7265C176.627 46.8428 176.498 46.9473 176.356 47.04L174.693 48.5392C173.607 49.5154 172.059 51.2733 170.047 53.8129L167.989 56.2936L167.635 56.6776C166.901 57.6096 166.146 58.3422 165.368 58.8754C164.614 59.4088 163.991 59.6737 163.499 59.67C162.913 59.6655 162.329 59.415 161.747 58.9184C161.376 58.4 161.192 57.8361 161.197 57.2268L161.236 56.77C161.553 55.1083 162.186 53.531 163.135 52.0381C163.324 51.7348 163.491 51.4314 163.634 51.1278C165.697 47.9557 167.81 45.9443 169.972 45.0934C170.747 44.9117 171.533 44.8239 172.33 44.8299C172.939 44.8345 173.361 44.8611 173.595 44.9097C174.391 45.0798 174.834 45.3527 174.925 45.7284C175.039 46.1043 175.096 46.3859 175.094 46.5734C175.091 46.9484 174.971 47.2991 174.735 47.6254C174.427 48.045 173.98 48.2526 173.394 48.2482L173.043 48.2104C172.622 48.09 172.212 48.0283 171.814 48.0253C171.251 48.0211 170.699 48.1341 170.159 48.3644C167.426 50.1485 165.533 52.6304 164.477 55.81C164.38 56.3249 164.33 56.6879 164.328 56.8988C164.327 57.1097 164.338 57.2153 164.361 57.2155L164.362 57.1452C164.316 56.9573 164.154 56.7451 163.874 56.5086C163.851 56.485 163.839 56.4732 163.839 56.4732C163.816 56.473 163.781 56.4728 163.734 56.4724C163.687 56.4486 163.664 56.4133 163.664 56.3664C163.735 56.2967 163.841 56.2389 163.982 56.193C164.1 56.1471 164.442 55.8918 165.008 55.4273C165.267 55.2183 165.515 54.9975 165.751 54.7649L166.14 54.4163C167.439 53.1136 168.692 51.7636 169.897 50.3664C171.009 49.0388 172.049 47.8982 173.017 46.9445L175.037 44.8855C175.84 44.0477 176.618 43.4091 177.371 42.9694C178.148 42.53 178.747 42.3118 179.169 42.315C179.802 42.3198 180.421 42.6174 181.026 43.2079C181.581 44.1496 181.855 45.1361 181.847 46.1673C181.842 46.8939 181.717 47.8773 181.474 49.1177C180.839 52.3943 179.625 56.4751 177.83 61.3601C175.079 68.7458 171.733 75.8575 167.79 82.6952C166.389 85.1456 164.978 87.3382 163.557 89.2728C162.775 90.3451 162.078 91.0898 161.466 91.5071C161.066 91.715 160.643 91.8173 160.198 91.814ZM213.454 69.4688C212.469 69.4614 211.911 68.9767 211.777 68.0147C211.891 65.3905 212.168 62.7793 212.61 60.181C213.231 55.4746 213.786 51.881 214.273 49.4002C217.32 33.8837 221.235 19.7449 226.019 6.98369L226.198 6.59831C227.367 3.8883 228.116 2.48766 228.444 2.39638L229.746 2.33588C230.589 2.34225 231.115 2.51028 231.324 2.83999C231.416 3.05162 231.461 3.29807 231.459 3.57931L231.459 3.61446C231.453 4.31757 230.519 6.98247 228.656 11.6092C227.821 13.6186 227.008 15.6633 226.219 17.7433C219.397 36.583 213.652 49.3487 208.985 56.0402L208.63 56.4594C207.495 57.8103 206.447 58.4821 205.486 58.4748C204.97 58.471 204.491 58.3501 204.047 58.1124C203.394 57.709 203.07 57.0855 203.077 56.2418C203.081 55.6558 203.144 55.0938 203.265 54.5556C203.289 54.5089 203.301 54.4504 203.302 54.3801C204.43 50.8026 206.073 47.4165 208.23 44.2217C208.941 43.1958 209.733 42.2291 210.607 41.3216C211.505 40.3908 212.612 39.7312 213.927 39.3426C215.31 39.3531 215.997 39.9208 215.989 41.0457C215.982 41.9598 215.403 42.5062 214.253 42.685C213.173 42.9582 211.912 43.9916 210.468 45.7855C208.575 48.2088 207.219 50.8588 206.4 53.7355C206.328 53.9928 206.291 54.2269 206.29 54.4378C206.289 54.5316 206.324 54.5787 206.394 54.5792C206.488 54.5799 206.653 54.464 206.889 54.2314C208.992 51.9269 210.781 49.4442 212.254 46.7834C216.674 38.7774 220.827 28.8241 224.714 16.9234C225.075 15.6135 225.472 14.3274 225.903 13.065C226.956 10.2135 227.74 7.17246 228.257 3.94189L228.295 3.52029C228.248 3.51994 228.154 3.67157 228.011 3.97519L228.01 4.11581C228.406 4.40006 228.85 4.61435 229.341 4.75868C229.691 4.87851 230.03 5.0217 230.357 5.18823C230.38 5.18841 230.392 5.20021 230.392 5.22365C230.368 5.27035 230.333 5.30524 230.286 5.32832C230.262 5.32814 230.239 5.33969 230.215 5.36295L230.002 5.67775C229.482 6.28322 228.936 7.07601 228.367 8.05611C225.277 13.658 222.374 21.0074 219.657 30.1043C216.242 41.6336 214.498 52.2731 214.424 62.0228C214.406 64.3665 214.568 66.2779 214.908 67.7571C214.9 68.8118 214.415 69.3823 213.454 69.4688ZM223.711 56.6786C222.937 56.6728 222.248 56.3981 221.643 55.8544L221.363 55.6062L221.225 55.2888C220.947 54.8413 220.81 54.3247 220.815 53.7387C220.82 53.0591 221.097 52.1119 221.645 50.8973C222.457 48.8877 223.748 47.0927 225.518 45.5123C226.933 44.351 228.214 43.7747 229.363 43.7834C229.902 43.7875 230.405 43.8967 230.872 44.1112C231.806 44.6339 232.539 45.3543 233.071 46.2724L233.133 47.3979C233.125 48.3588 232.922 48.8377 232.524 48.8347C232.172 48.8321 231.601 48.5113 230.809 47.8725C230.624 47.4961 230.192 47.3054 229.512 47.3002C228.786 47.2948 228.069 47.512 227.363 47.952C226.089 49.0206 225.13 50.3259 224.485 51.8679C224.27 52.4757 224.161 52.8968 224.159 53.1311C224.158 53.3186 224.228 53.4129 224.368 53.414C224.509 53.415 224.838 53.2534 225.356 52.9292L225.815 52.6514C227.584 51.235 229.201 49.6534 230.668 47.9066C231.803 46.5792 232.652 45.8239 233.216 45.6406C233.803 45.4576 234.191 45.3667 234.378 45.3681C235.011 45.3729 235.547 45.7402 235.987 46.4701C236.171 46.9169 236.259 47.7261 236.25 48.898L236.246 49.3902C236.24 50.2808 236.421 51.1493 236.789 51.9959C237.066 52.6308 237.543 53.1149 238.22 53.4481C238.711 53.6393 239.214 53.7369 239.729 53.7408L240.573 53.712C243.484 53.1948 246.201 51.8794 248.724 49.7655L249.715 48.9644C250.069 48.6623 250.398 48.5125 250.703 48.5148C251.148 48.5181 251.393 48.6372 251.438 48.8719C251.484 49.0832 251.506 49.2123 251.506 49.2591C251.504 49.5169 251.326 49.7968 250.972 50.0989L249.203 51.5621C246.634 53.4881 243.788 54.7909 240.666 55.4705L240.42 55.4687C240.161 55.5136 239.88 55.5349 239.575 55.5326C238.685 55.5259 237.714 55.2842 236.663 54.8075C234.982 53.8573 233.918 52.0797 233.468 49.4747L233.436 49.158C233.346 48.6651 233.289 48.4069 233.266 48.3833C233.243 48.3362 233.231 48.2893 233.232 48.2424C233.232 48.1955 233.244 48.1722 233.267 48.1723C233.361 48.173 233.407 48.3375 233.404 48.6656L233.402 48.982C232.74 49.6567 232.102 50.3433 231.488 51.0418C230.235 52.509 228.877 53.8699 227.414 55.1245C226 56.1685 224.765 56.6866 223.711 56.6786ZM250.124 92.6328C249.679 92.6294 249.246 92.5441 248.825 92.3769C247.543 91.4531 246.814 90.264 246.637 88.8095C246.571 88.2465 246.54 87.6954 246.544 87.1564C246.555 85.7267 246.764 84.3455 247.173 83.0126C248.211 79.0359 249.763 75.2858 251.828 71.7622L252.648 70.2918C255.967 65.3479 259.693 60.6884 263.828 56.3132C267.963 51.9146 272.159 48.6414 276.418 46.4938C276.559 46.4245 276.688 46.3904 276.805 46.3912C277.063 46.3932 277.191 46.5348 277.189 46.816C277.188 46.9566 277.117 47.0616 276.976 47.1308C272.057 49.8126 267.507 53.3526 263.325 57.7508C258.482 62.8004 254.882 67.7656 252.525 72.6464C251.05 75.5416 249.915 78.4394 249.119 81.3397C248.612 83.2812 248.354 84.8731 248.345 86.1152C248.337 87.123 248.447 88.0965 248.674 89.0358C249.136 89.9534 249.672 90.4144 250.281 90.419C250.609 90.4215 250.95 90.2952 251.304 90.04C253.047 88.8344 254.763 86.6324 256.451 83.4341C260.732 75.2865 263.502 62.1703 264.764 44.0855C264.839 43.3829 264.883 42.2582 264.895 40.7114C264.895 40.6411 264.873 40.5472 264.827 40.4296C264.804 40.2888 264.793 40.1833 264.794 40.113C264.794 40.0895 264.818 40.078 264.864 40.0784C265.145 40.1977 265.401 40.3988 265.633 40.6818C265.889 40.9416 266.169 41.1195 266.473 41.2155C266.733 40.9831 266.886 40.8671 266.933 40.8674C266.956 40.8676 266.968 40.8794 266.968 40.9028C266.965 41.2309 265.154 43.6431 261.534 48.1394C260.587 49.3276 259.996 50.0849 259.759 50.4112C257.888 52.9753 256.152 54.767 254.55 55.7862C254.009 56.1337 253.445 56.3286 252.858 56.3711C251.711 56.2452 250.859 55.7232 250.304 54.8049C249.934 54.0521 249.753 53.2187 249.76 52.3046C249.768 51.2969 249.918 50.0675 250.21 48.6165C250.331 48.0784 250.417 47.5634 250.468 47.0715C250.934 44.2859 251.587 41.5486 252.428 38.8595C252.831 38.2297 253.314 37.917 253.876 37.9212C254.509 37.926 254.953 38.1286 255.208 38.5289C255.486 38.906 255.624 39.2352 255.622 39.5165C255.62 39.8211 255.524 40.1603 255.333 40.5338C254.384 42.097 253.593 44.4114 252.961 47.4771C252.937 47.5003 252.925 47.5354 252.925 47.5823L252.74 48.8114C252.545 49.8178 252.444 50.6725 252.439 51.3756C252.434 51.985 252.535 52.5717 252.742 53.1357C252.882 53.2306 253.034 53.2786 253.198 53.2798C253.831 53.2846 255.057 52.2626 256.878 50.2137C259.903 46.838 262.509 43.1193 264.696 39.0575C265.123 38.4045 265.501 38.0558 265.829 38.0114C266.181 37.9437 266.416 37.9103 266.533 37.9112C266.955 37.9144 267.317 38.0577 267.62 38.3413C267.946 38.625 268.107 39.0247 268.103 39.5403C268.097 40.3137 267.889 41.484 267.479 43.0513L267.187 44.4202C266.406 48.516 265.672 52.659 264.984 56.8493C264.492 59.916 263.977 62.9473 263.439 65.9433C262.12 73.0586 260.328 79.1273 258.063 84.1494C257.277 85.7607 256.175 87.4751 254.755 89.2926C253.027 91.5296 251.483 92.643 250.124 92.6328ZM278.878 65.2512C278.644 65.2494 278.433 65.1775 278.247 65.0355C277.967 64.8693 277.829 64.5635 277.832 64.1182L278.649 58.3938C279.369 53.0319 280.531 44.9193 282.137 34.0561C282.432 32.1598 283.075 27.77 284.064 20.8867L284.176 20.114C284.398 18.6157 284.562 17.1169 284.667 15.6176C284.837 14.8454 285.109 14.4022 285.485 14.2878C285.885 14.1736 286.166 14.1172 286.33 14.1184C286.705 14.1212 287.056 14.2411 287.382 14.4779C287.802 14.7858 288.009 15.2327 288.005 15.8186C288.004 16.0061 287.772 17.1645 287.311 19.2939C285.56 27.7419 284.525 32.785 284.208 34.4233C281.986 46.2897 280.552 56.2401 279.905 64.2745C279.759 64.9297 279.417 65.2552 278.878 65.2512ZM277.152 75.0822C276.073 75.074 275.539 74.4958 275.547 73.3474C275.549 73.113 275.539 72.9723 275.515 72.9252C275.516 72.9018 275.516 72.8432 275.517 72.7495C275.517 72.6791 275.506 72.597 275.483 72.5031C275.493 71.2844 276.06 70.6793 277.185 70.6878C277.466 70.6899 277.747 70.7623 278.027 70.9051C278.611 71.1907 278.9 71.732 278.894 72.5288C278.869 72.6224 278.857 72.7395 278.856 72.8801C278.856 72.9035 278.844 72.9269 278.82 72.9502C278.82 72.9736 278.819 73.1142 278.817 73.372C278.808 74.5204 278.253 75.0905 277.152 75.0822Z" fill="black"/>
</svg>
